ISO-10303-21;
HEADER;
/* Generated by software containing ST-Developer
 * from STEP Tools, Inc. (www.steptools.com) 
 */

FILE_DESCRIPTION(
/* description */ (''),
/* implementation_level */ '2;1');

FILE_NAME(
/* name */ 'OGPlatform.stp',
/* time_stamp */ '2026-07-08T19:00:11-05:00',
/* author */ ('machnach0'),
/* organization */ (''),
/* preprocessor_version */ 'ST-DEVELOPER v20.1',
/* originating_system */ 'Autodesk Inventor 2027',
/* authorisation */ '');

FILE_SCHEMA (('AUTOMOTIVE_DESIGN { 1 0 10303 214 3 1 1 }'));
ENDSEC;

DATA;
#10=MECHANICAL_DESIGN_GEOMETRIC_PRESENTATION_REPRESENTATION('',(#13),#965);
#11=SHAPE_REPRESENTATION_RELATIONSHIP('SRR','None',#976,#12);
#12=ADVANCED_BREP_SHAPE_REPRESENTATION('',(#14),#964);
#13=STYLED_ITEM('',(#985),#14);
#14=MANIFOLD_SOLID_BREP('Solid1',#593);
#15=FACE_BOUND('',#114,.T.);
#16=FACE_BOUND('',#116,.T.);
#17=FACE_BOUND('',#117,.T.);
#18=FACE_BOUND('',#118,.T.);
#19=FACE_BOUND('',#119,.T.);
#20=FACE_BOUND('',#120,.T.);
#21=PLANE('',#618);
#22=PLANE('',#619);
#23=PLANE('',#620);
#24=PLANE('',#621);
#25=PLANE('',#622);
#26=PLANE('',#623);
#27=PLANE('',#624);
#28=PLANE('',#625);
#29=PLANE('',#626);
#30=PLANE('',#627);
#31=PLANE('',#628);
#32=PLANE('',#629);
#33=PLANE('',#630);
#34=PLANE('',#631);
#35=PLANE('',#632);
#36=PLANE('',#633);
#37=PLANE('',#634);
#38=PLANE('',#635);
#39=PLANE('',#636);
#40=PLANE('',#637);
#41=PLANE('',#638);
#42=PLANE('',#639);
#43=PLANE('',#640);
#44=PLANE('',#641);
#45=PLANE('',#642);
#46=PLANE('',#643);
#47=PLANE('',#644);
#48=PLANE('',#645);
#49=PLANE('',#649);
#50=PLANE('',#650);
#51=FACE_OUTER_BOUND('',#83,.T.);
#52=FACE_OUTER_BOUND('',#84,.T.);
#53=FACE_OUTER_BOUND('',#85,.T.);
#54=FACE_OUTER_BOUND('',#86,.T.);
#55=FACE_OUTER_BOUND('',#87,.T.);
#56=FACE_OUTER_BOUND('',#88,.T.);
#57=FACE_OUTER_BOUND('',#89,.T.);
#58=FACE_OUTER_BOUND('',#90,.T.);
#59=FACE_OUTER_BOUND('',#91,.T.);
#60=FACE_OUTER_BOUND('',#92,.T.);
#61=FACE_OUTER_BOUND('',#93,.T.);
#62=FACE_OUTER_BOUND('',#94,.T.);
#63=FACE_OUTER_BOUND('',#95,.T.);
#64=FACE_OUTER_BOUND('',#96,.T.);
#65=FACE_OUTER_BOUND('',#97,.T.);
#66=FACE_OUTER_BOUND('',#98,.T.);
#67=FACE_OUTER_BOUND('',#99,.T.);
#68=FACE_OUTER_BOUND('',#100,.T.);
#69=FACE_OUTER_BOUND('',#101,.T.);
#70=FACE_OUTER_BOUND('',#102,.T.);
#71=FACE_OUTER_BOUND('',#103,.T.);
#72=FACE_OUTER_BOUND('',#104,.T.);
#73=FACE_OUTER_BOUND('',#105,.T.);
#74=FACE_OUTER_BOUND('',#106,.T.);
#75=FACE_OUTER_BOUND('',#107,.T.);
#76=FACE_OUTER_BOUND('',#108,.T.);
#77=FACE_OUTER_BOUND('',#109,.T.);
#78=FACE_OUTER_BOUND('',#110,.T.);
#79=FACE_OUTER_BOUND('',#111,.T.);
#80=FACE_OUTER_BOUND('',#112,.T.);
#81=FACE_OUTER_BOUND('',#113,.T.);
#82=FACE_OUTER_BOUND('',#115,.T.);
#83=EDGE_LOOP('',(#403,#404,#405,#406));
#84=EDGE_LOOP('',(#407,#408,#409,#410));
#85=EDGE_LOOP('',(#411,#412,#413,#414));
#86=EDGE_LOOP('',(#415,#416,#417,#418));
#87=EDGE_LOOP('',(#419,#420,#421,#422));
#88=EDGE_LOOP('',(#423,#424,#425,#426));
#89=EDGE_LOOP('',(#427,#428,#429,#430));
#90=EDGE_LOOP('',(#431,#432,#433,#434,#435,#436));
#91=EDGE_LOOP('',(#437,#438,#439,#440));
#92=EDGE_LOOP('',(#441,#442,#443,#444));
#93=EDGE_LOOP('',(#445,#446,#447,#448));
#94=EDGE_LOOP('',(#449,#450,#451,#452));
#95=EDGE_LOOP('',(#453,#454,#455,#456));
#96=EDGE_LOOP('',(#457,#458,#459,#460));
#97=EDGE_LOOP('',(#461,#462,#463,#464,#465,#466));
#98=EDGE_LOOP('',(#467,#468,#469,#470));
#99=EDGE_LOOP('',(#471,#472,#473,#474));
#100=EDGE_LOOP('',(#475,#476,#477,#478));
#101=EDGE_LOOP('',(#479,#480,#481,#482));
#102=EDGE_LOOP('',(#483,#484,#485,#486));
#103=EDGE_LOOP('',(#487,#488,#489,#490));
#104=EDGE_LOOP('',(#491,#492,#493,#494,#495,#496));
#105=EDGE_LOOP('',(#497,#498,#499,#500));
#106=EDGE_LOOP('',(#501,#502,#503,#504));
#107=EDGE_LOOP('',(#505,#506,#507,#508));
#108=EDGE_LOOP('',(#509,#510,#511,#512));
#109=EDGE_LOOP('',(#513,#514,#515,#516));
#110=EDGE_LOOP('',(#517,#518,#519,#520));
#111=EDGE_LOOP('',(#521,#522,#523,#524,#525,#526));
#112=EDGE_LOOP('',(#527,#528,#529,#530));
#113=EDGE_LOOP('',(#531));
#114=EDGE_LOOP('',(#532));
#115=EDGE_LOOP('',(#533));
#116=EDGE_LOOP('',(#534));
#117=EDGE_LOOP('',(#535,#536,#537,#538,#539,#540));
#118=EDGE_LOOP('',(#541,#542,#543,#544,#545,#546));
#119=EDGE_LOOP('',(#547,#548,#549,#550,#551,#552));
#120=EDGE_LOOP('',(#553,#554,#555,#556,#557,#558));
#121=LINE('',#804,#195);
#122=LINE('',#809,#196);
#123=LINE('',#811,#197);
#124=LINE('',#813,#198);
#125=LINE('',#814,#199);
#126=LINE('',#817,#200);
#127=LINE('',#819,#201);
#128=LINE('',#820,#202);
#129=LINE('',#823,#203);
#130=LINE('',#825,#204);
#131=LINE('',#826,#205);
#132=LINE('',#829,#206);
#133=LINE('',#831,#207);
#134=LINE('',#832,#208);
#135=LINE('',#835,#209);
#136=LINE('',#837,#210);
#137=LINE('',#838,#211);
#138=LINE('',#840,#212);
#139=LINE('',#841,#213);
#140=LINE('',#846,#214);
#141=LINE('',#848,#215);
#142=LINE('',#850,#216);
#143=LINE('',#851,#217);
#144=LINE('',#854,#218);
#145=LINE('',#856,#219);
#146=LINE('',#857,#220);
#147=LINE('',#860,#221);
#148=LINE('',#862,#222);
#149=LINE('',#863,#223);
#150=LINE('',#866,#224);
#151=LINE('',#868,#225);
#152=LINE('',#869,#226);
#153=LINE('',#872,#227);
#154=LINE('',#874,#228);
#155=LINE('',#875,#229);
#156=LINE('',#877,#230);
#157=LINE('',#878,#231);
#158=LINE('',#883,#232);
#159=LINE('',#885,#233);
#160=LINE('',#887,#234);
#161=LINE('',#888,#235);
#162=LINE('',#891,#236);
#163=LINE('',#893,#237);
#164=LINE('',#894,#238);
#165=LINE('',#897,#239);
#166=LINE('',#899,#240);
#167=LINE('',#900,#241);
#168=LINE('',#903,#242);
#169=LINE('',#905,#243);
#170=LINE('',#906,#244);
#171=LINE('',#909,#245);
#172=LINE('',#911,#246);
#173=LINE('',#912,#247);
#174=LINE('',#914,#248);
#175=LINE('',#915,#249);
#176=LINE('',#920,#250);
#177=LINE('',#922,#251);
#178=LINE('',#924,#252);
#179=LINE('',#925,#253);
#180=LINE('',#928,#254);
#181=LINE('',#930,#255);
#182=LINE('',#931,#256);
#183=LINE('',#934,#257);
#184=LINE('',#936,#258);
#185=LINE('',#937,#259);
#186=LINE('',#940,#260);
#187=LINE('',#942,#261);
#188=LINE('',#943,#262);
#189=LINE('',#946,#263);
#190=LINE('',#948,#264);
#191=LINE('',#949,#265);
#192=LINE('',#951,#266);
#193=LINE('',#952,#267);
#194=LINE('',#958,#268);
#195=VECTOR('',#657,0.15);
#196=VECTOR('',#662,0.393700787401575);
#197=VECTOR('',#663,0.393700787401575);
#198=VECTOR('',#664,0.393700787401575);
#199=VECTOR('',#665,0.393700787401575);
#200=VECTOR('',#668,0.393700787401575);
#201=VECTOR('',#669,0.393700787401575);
#202=VECTOR('',#670,0.393700787401575);
#203=VECTOR('',#673,0.393700787401575);
#204=VECTOR('',#674,0.393700787401575);
#205=VECTOR('',#675,0.393700787401575);
#206=VECTOR('',#678,0.393700787401575);
#207=VECTOR('',#679,0.393700787401575);
#208=VECTOR('',#680,0.393700787401575);
#209=VECTOR('',#683,0.393700787401575);
#210=VECTOR('',#684,0.393700787401575);
#211=VECTOR('',#685,0.393700787401575);
#212=VECTOR('',#688,0.393700787401575);
#213=VECTOR('',#689,0.393700787401575);
#214=VECTOR('',#694,0.393700787401575);
#215=VECTOR('',#695,0.393700787401575);
#216=VECTOR('',#696,0.393700787401575);
#217=VECTOR('',#697,0.393700787401575);
#218=VECTOR('',#700,0.393700787401575);
#219=VECTOR('',#701,0.393700787401575);
#220=VECTOR('',#702,0.393700787401575);
#221=VECTOR('',#705,0.393700787401575);
#222=VECTOR('',#706,0.393700787401575);
#223=VECTOR('',#707,0.393700787401575);
#224=VECTOR('',#710,0.393700787401575);
#225=VECTOR('',#711,0.393700787401575);
#226=VECTOR('',#712,0.393700787401575);
#227=VECTOR('',#715,0.393700787401575);
#228=VECTOR('',#716,0.393700787401575);
#229=VECTOR('',#717,0.393700787401575);
#230=VECTOR('',#720,0.393700787401575);
#231=VECTOR('',#721,0.393700787401575);
#232=VECTOR('',#726,0.393700787401575);
#233=VECTOR('',#727,0.393700787401575);
#234=VECTOR('',#728,0.393700787401575);
#235=VECTOR('',#729,0.393700787401575);
#236=VECTOR('',#732,0.393700787401575);
#237=VECTOR('',#733,0.393700787401575);
#238=VECTOR('',#734,0.393700787401575);
#239=VECTOR('',#737,0.393700787401575);
#240=VECTOR('',#738,0.393700787401575);
#241=VECTOR('',#739,0.393700787401575);
#242=VECTOR('',#742,0.393700787401575);
#243=VECTOR('',#743,0.393700787401575);
#244=VECTOR('',#744,0.393700787401575);
#245=VECTOR('',#747,0.393700787401575);
#246=VECTOR('',#748,0.393700787401575);
#247=VECTOR('',#749,0.393700787401575);
#248=VECTOR('',#752,0.393700787401575);
#249=VECTOR('',#753,0.393700787401575);
#250=VECTOR('',#758,0.393700787401575);
#251=VECTOR('',#759,0.393700787401575);
#252=VECTOR('',#760,0.393700787401575);
#253=VECTOR('',#761,0.393700787401575);
#254=VECTOR('',#764,0.393700787401575);
#255=VECTOR('',#765,0.393700787401575);
#256=VECTOR('',#766,0.393700787401575);
#257=VECTOR('',#769,0.393700787401575);
#258=VECTOR('',#770,0.393700787401575);
#259=VECTOR('',#771,0.393700787401575);
#260=VECTOR('',#774,0.393700787401575);
#261=VECTOR('',#775,0.393700787401575);
#262=VECTOR('',#776,0.393700787401575);
#263=VECTOR('',#779,0.393700787401575);
#264=VECTOR('',#780,0.393700787401575);
#265=VECTOR('',#781,0.393700787401575);
#266=VECTOR('',#784,0.393700787401575);
#267=VECTOR('',#785,0.393700787401575);
#268=VECTOR('',#792,1.2);
#269=CIRCLE('',#616,0.15);
#270=CIRCLE('',#617,0.15);
#271=CIRCLE('',#647,1.2);
#272=CIRCLE('',#648,1.2);
#273=VERTEX_POINT('',#801);
#274=VERTEX_POINT('',#803);
#275=VERTEX_POINT('',#807);
#276=VERTEX_POINT('',#808);
#277=VERTEX_POINT('',#810);
#278=VERTEX_POINT('',#812);
#279=VERTEX_POINT('',#816);
#280=VERTEX_POINT('',#818);
#281=VERTEX_POINT('',#822);
#282=VERTEX_POINT('',#824);
#283=VERTEX_POINT('',#828);
#284=VERTEX_POINT('',#830);
#285=VERTEX_POINT('',#834);
#286=VERTEX_POINT('',#836);
#287=VERTEX_POINT('',#844);
#288=VERTEX_POINT('',#845);
#289=VERTEX_POINT('',#847);
#290=VERTEX_POINT('',#849);
#291=VERTEX_POINT('',#853);
#292=VERTEX_POINT('',#855);
#293=VERTEX_POINT('',#859);
#294=VERTEX_POINT('',#861);
#295=VERTEX_POINT('',#865);
#296=VERTEX_POINT('',#867);
#297=VERTEX_POINT('',#871);
#298=VERTEX_POINT('',#873);
#299=VERTEX_POINT('',#881);
#300=VERTEX_POINT('',#882);
#301=VERTEX_POINT('',#884);
#302=VERTEX_POINT('',#886);
#303=VERTEX_POINT('',#890);
#304=VERTEX_POINT('',#892);
#305=VERTEX_POINT('',#896);
#306=VERTEX_POINT('',#898);
#307=VERTEX_POINT('',#902);
#308=VERTEX_POINT('',#904);
#309=VERTEX_POINT('',#908);
#310=VERTEX_POINT('',#910);
#311=VERTEX_POINT('',#918);
#312=VERTEX_POINT('',#919);
#313=VERTEX_POINT('',#921);
#314=VERTEX_POINT('',#923);
#315=VERTEX_POINT('',#927);
#316=VERTEX_POINT('',#929);
#317=VERTEX_POINT('',#933);
#318=VERTEX_POINT('',#935);
#319=VERTEX_POINT('',#939);
#320=VERTEX_POINT('',#941);
#321=VERTEX_POINT('',#945);
#322=VERTEX_POINT('',#947);
#323=VERTEX_POINT('',#955);
#324=VERTEX_POINT('',#957);
#325=EDGE_CURVE('',#273,#273,#269,.T.);
#326=EDGE_CURVE('',#273,#274,#121,.T.);
#327=EDGE_CURVE('',#274,#274,#270,.T.);
#328=EDGE_CURVE('',#275,#276,#122,.T.);
#329=EDGE_CURVE('',#275,#277,#123,.T.);
#330=EDGE_CURVE('',#278,#277,#124,.T.);
#331=EDGE_CURVE('',#276,#278,#125,.T.);
#332=EDGE_CURVE('',#276,#279,#126,.T.);
#333=EDGE_CURVE('',#280,#278,#127,.T.);
#334=EDGE_CURVE('',#279,#280,#128,.T.);
#335=EDGE_CURVE('',#279,#281,#129,.T.);
#336=EDGE_CURVE('',#282,#280,#130,.T.);
#337=EDGE_CURVE('',#281,#282,#131,.T.);
#338=EDGE_CURVE('',#281,#283,#132,.T.);
#339=EDGE_CURVE('',#284,#282,#133,.T.);
#340=EDGE_CURVE('',#283,#284,#134,.T.);
#341=EDGE_CURVE('',#283,#285,#135,.T.);
#342=EDGE_CURVE('',#286,#284,#136,.T.);
#343=EDGE_CURVE('',#285,#286,#137,.T.);
#344=EDGE_CURVE('',#285,#275,#138,.T.);
#345=EDGE_CURVE('',#277,#286,#139,.T.);
#346=EDGE_CURVE('',#287,#288,#140,.T.);
#347=EDGE_CURVE('',#287,#289,#141,.T.);
#348=EDGE_CURVE('',#290,#289,#142,.T.);
#349=EDGE_CURVE('',#288,#290,#143,.T.);
#350=EDGE_CURVE('',#288,#291,#144,.T.);
#351=EDGE_CURVE('',#292,#290,#145,.T.);
#352=EDGE_CURVE('',#291,#292,#146,.T.);
#353=EDGE_CURVE('',#291,#293,#147,.T.);
#354=EDGE_CURVE('',#294,#292,#148,.T.);
#355=EDGE_CURVE('',#293,#294,#149,.T.);
#356=EDGE_CURVE('',#293,#295,#150,.T.);
#357=EDGE_CURVE('',#296,#294,#151,.T.);
#358=EDGE_CURVE('',#295,#296,#152,.T.);
#359=EDGE_CURVE('',#295,#297,#153,.T.);
#360=EDGE_CURVE('',#298,#296,#154,.T.);
#361=EDGE_CURVE('',#297,#298,#155,.T.);
#362=EDGE_CURVE('',#297,#287,#156,.T.);
#363=EDGE_CURVE('',#289,#298,#157,.T.);
#364=EDGE_CURVE('',#299,#300,#158,.T.);
#365=EDGE_CURVE('',#299,#301,#159,.T.);
#366=EDGE_CURVE('',#302,#301,#160,.T.);
#367=EDGE_CURVE('',#300,#302,#161,.T.);
#368=EDGE_CURVE('',#300,#303,#162,.T.);
#369=EDGE_CURVE('',#304,#302,#163,.T.);
#370=EDGE_CURVE('',#303,#304,#164,.T.);
#371=EDGE_CURVE('',#303,#305,#165,.T.);
#372=EDGE_CURVE('',#306,#304,#166,.T.);
#373=EDGE_CURVE('',#305,#306,#167,.T.);
#374=EDGE_CURVE('',#305,#307,#168,.T.);
#375=EDGE_CURVE('',#308,#306,#169,.T.);
#376=EDGE_CURVE('',#307,#308,#170,.T.);
#377=EDGE_CURVE('',#307,#309,#171,.T.);
#378=EDGE_CURVE('',#310,#308,#172,.T.);
#379=EDGE_CURVE('',#309,#310,#173,.T.);
#380=EDGE_CURVE('',#309,#299,#174,.T.);
#381=EDGE_CURVE('',#301,#310,#175,.T.);
#382=EDGE_CURVE('',#311,#312,#176,.T.);
#383=EDGE_CURVE('',#311,#313,#177,.T.);
#384=EDGE_CURVE('',#314,#313,#178,.T.);
#385=EDGE_CURVE('',#312,#314,#179,.T.);
#386=EDGE_CURVE('',#312,#315,#180,.T.);
#387=EDGE_CURVE('',#316,#314,#181,.T.);
#388=EDGE_CURVE('',#315,#316,#182,.T.);
#389=EDGE_CURVE('',#315,#317,#183,.T.);
#390=EDGE_CURVE('',#318,#316,#184,.T.);
#391=EDGE_CURVE('',#317,#318,#185,.T.);
#392=EDGE_CURVE('',#317,#319,#186,.T.);
#393=EDGE_CURVE('',#320,#318,#187,.T.);
#394=EDGE_CURVE('',#319,#320,#188,.T.);
#395=EDGE_CURVE('',#319,#321,#189,.T.);
#396=EDGE_CURVE('',#322,#320,#190,.T.);
#397=EDGE_CURVE('',#321,#322,#191,.T.);
#398=EDGE_CURVE('',#321,#311,#192,.T.);
#399=EDGE_CURVE('',#313,#322,#193,.T.);
#400=EDGE_CURVE('',#323,#323,#271,.T.);
#401=EDGE_CURVE('',#323,#324,#194,.T.);
#402=EDGE_CURVE('',#324,#324,#272,.T.);
#403=ORIENTED_EDGE('',*,*,#325,.F.);
#404=ORIENTED_EDGE('',*,*,#326,.T.);
#405=ORIENTED_EDGE('',*,*,#327,.F.);
#406=ORIENTED_EDGE('',*,*,#326,.F.);
#407=ORIENTED_EDGE('',*,*,#328,.F.);
#408=ORIENTED_EDGE('',*,*,#329,.T.);
#409=ORIENTED_EDGE('',*,*,#330,.F.);
#410=ORIENTED_EDGE('',*,*,#331,.F.);
#411=ORIENTED_EDGE('',*,*,#332,.F.);
#412=ORIENTED_EDGE('',*,*,#331,.T.);
#413=ORIENTED_EDGE('',*,*,#333,.F.);
#414=ORIENTED_EDGE('',*,*,#334,.F.);
#415=ORIENTED_EDGE('',*,*,#335,.F.);
#416=ORIENTED_EDGE('',*,*,#334,.T.);
#417=ORIENTED_EDGE('',*,*,#336,.F.);
#418=ORIENTED_EDGE('',*,*,#337,.F.);
#419=ORIENTED_EDGE('',*,*,#338,.F.);
#420=ORIENTED_EDGE('',*,*,#337,.T.);
#421=ORIENTED_EDGE('',*,*,#339,.F.);
#422=ORIENTED_EDGE('',*,*,#340,.F.);
#423=ORIENTED_EDGE('',*,*,#341,.F.);
#424=ORIENTED_EDGE('',*,*,#340,.T.);
#425=ORIENTED_EDGE('',*,*,#342,.F.);
#426=ORIENTED_EDGE('',*,*,#343,.F.);
#427=ORIENTED_EDGE('',*,*,#344,.F.);
#428=ORIENTED_EDGE('',*,*,#343,.T.);
#429=ORIENTED_EDGE('',*,*,#345,.F.);
#430=ORIENTED_EDGE('',*,*,#329,.F.);
#431=ORIENTED_EDGE('',*,*,#345,.T.);
#432=ORIENTED_EDGE('',*,*,#342,.T.);
#433=ORIENTED_EDGE('',*,*,#339,.T.);
#434=ORIENTED_EDGE('',*,*,#336,.T.);
#435=ORIENTED_EDGE('',*,*,#333,.T.);
#436=ORIENTED_EDGE('',*,*,#330,.T.);
#437=ORIENTED_EDGE('',*,*,#346,.F.);
#438=ORIENTED_EDGE('',*,*,#347,.T.);
#439=ORIENTED_EDGE('',*,*,#348,.F.);
#440=ORIENTED_EDGE('',*,*,#349,.F.);
#441=ORIENTED_EDGE('',*,*,#350,.F.);
#442=ORIENTED_EDGE('',*,*,#349,.T.);
#443=ORIENTED_EDGE('',*,*,#351,.F.);
#444=ORIENTED_EDGE('',*,*,#352,.F.);
#445=ORIENTED_EDGE('',*,*,#353,.F.);
#446=ORIENTED_EDGE('',*,*,#352,.T.);
#447=ORIENTED_EDGE('',*,*,#354,.F.);
#448=ORIENTED_EDGE('',*,*,#355,.F.);
#449=ORIENTED_EDGE('',*,*,#356,.F.);
#450=ORIENTED_EDGE('',*,*,#355,.T.);
#451=ORIENTED_EDGE('',*,*,#357,.F.);
#452=ORIENTED_EDGE('',*,*,#358,.F.);
#453=ORIENTED_EDGE('',*,*,#359,.F.);
#454=ORIENTED_EDGE('',*,*,#358,.T.);
#455=ORIENTED_EDGE('',*,*,#360,.F.);
#456=ORIENTED_EDGE('',*,*,#361,.F.);
#457=ORIENTED_EDGE('',*,*,#362,.F.);
#458=ORIENTED_EDGE('',*,*,#361,.T.);
#459=ORIENTED_EDGE('',*,*,#363,.F.);
#460=ORIENTED_EDGE('',*,*,#347,.F.);
#461=ORIENTED_EDGE('',*,*,#363,.T.);
#462=ORIENTED_EDGE('',*,*,#360,.T.);
#463=ORIENTED_EDGE('',*,*,#357,.T.);
#464=ORIENTED_EDGE('',*,*,#354,.T.);
#465=ORIENTED_EDGE('',*,*,#351,.T.);
#466=ORIENTED_EDGE('',*,*,#348,.T.);
#467=ORIENTED_EDGE('',*,*,#364,.F.);
#468=ORIENTED_EDGE('',*,*,#365,.T.);
#469=ORIENTED_EDGE('',*,*,#366,.F.);
#470=ORIENTED_EDGE('',*,*,#367,.F.);
#471=ORIENTED_EDGE('',*,*,#368,.F.);
#472=ORIENTED_EDGE('',*,*,#367,.T.);
#473=ORIENTED_EDGE('',*,*,#369,.F.);
#474=ORIENTED_EDGE('',*,*,#370,.F.);
#475=ORIENTED_EDGE('',*,*,#371,.F.);
#476=ORIENTED_EDGE('',*,*,#370,.T.);
#477=ORIENTED_EDGE('',*,*,#372,.F.);
#478=ORIENTED_EDGE('',*,*,#373,.F.);
#479=ORIENTED_EDGE('',*,*,#374,.F.);
#480=ORIENTED_EDGE('',*,*,#373,.T.);
#481=ORIENTED_EDGE('',*,*,#375,.F.);
#482=ORIENTED_EDGE('',*,*,#376,.F.);
#483=ORIENTED_EDGE('',*,*,#377,.F.);
#484=ORIENTED_EDGE('',*,*,#376,.T.);
#485=ORIENTED_EDGE('',*,*,#378,.F.);
#486=ORIENTED_EDGE('',*,*,#379,.F.);
#487=ORIENTED_EDGE('',*,*,#380,.F.);
#488=ORIENTED_EDGE('',*,*,#379,.T.);
#489=ORIENTED_EDGE('',*,*,#381,.F.);
#490=ORIENTED_EDGE('',*,*,#365,.F.);
#491=ORIENTED_EDGE('',*,*,#381,.T.);
#492=ORIENTED_EDGE('',*,*,#378,.T.);
#493=ORIENTED_EDGE('',*,*,#375,.T.);
#494=ORIENTED_EDGE('',*,*,#372,.T.);
#495=ORIENTED_EDGE('',*,*,#369,.T.);
#496=ORIENTED_EDGE('',*,*,#366,.T.);
#497=ORIENTED_EDGE('',*,*,#382,.F.);
#498=ORIENTED_EDGE('',*,*,#383,.T.);
#499=ORIENTED_EDGE('',*,*,#384,.F.);
#500=ORIENTED_EDGE('',*,*,#385,.F.);
#501=ORIENTED_EDGE('',*,*,#386,.F.);
#502=ORIENTED_EDGE('',*,*,#385,.T.);
#503=ORIENTED_EDGE('',*,*,#387,.F.);
#504=ORIENTED_EDGE('',*,*,#388,.F.);
#505=ORIENTED_EDGE('',*,*,#389,.F.);
#506=ORIENTED_EDGE('',*,*,#388,.T.);
#507=ORIENTED_EDGE('',*,*,#390,.F.);
#508=ORIENTED_EDGE('',*,*,#391,.F.);
#509=ORIENTED_EDGE('',*,*,#392,.F.);
#510=ORIENTED_EDGE('',*,*,#391,.T.);
#511=ORIENTED_EDGE('',*,*,#393,.F.);
#512=ORIENTED_EDGE('',*,*,#394,.F.);
#513=ORIENTED_EDGE('',*,*,#395,.F.);
#514=ORIENTED_EDGE('',*,*,#394,.T.);
#515=ORIENTED_EDGE('',*,*,#396,.F.);
#516=ORIENTED_EDGE('',*,*,#397,.F.);
#517=ORIENTED_EDGE('',*,*,#398,.F.);
#518=ORIENTED_EDGE('',*,*,#397,.T.);
#519=ORIENTED_EDGE('',*,*,#399,.F.);
#520=ORIENTED_EDGE('',*,*,#383,.F.);
#521=ORIENTED_EDGE('',*,*,#399,.T.);
#522=ORIENTED_EDGE('',*,*,#396,.T.);
#523=ORIENTED_EDGE('',*,*,#393,.T.);
#524=ORIENTED_EDGE('',*,*,#390,.T.);
#525=ORIENTED_EDGE('',*,*,#387,.T.);
#526=ORIENTED_EDGE('',*,*,#384,.T.);
#527=ORIENTED_EDGE('',*,*,#400,.F.);
#528=ORIENTED_EDGE('',*,*,#401,.T.);
#529=ORIENTED_EDGE('',*,*,#402,.T.);
#530=ORIENTED_EDGE('',*,*,#401,.F.);
#531=ORIENTED_EDGE('',*,*,#400,.T.);
#532=ORIENTED_EDGE('',*,*,#327,.T.);
#533=ORIENTED_EDGE('',*,*,#402,.F.);
#534=ORIENTED_EDGE('',*,*,#325,.T.);
#535=ORIENTED_EDGE('',*,*,#328,.T.);
#536=ORIENTED_EDGE('',*,*,#332,.T.);
#537=ORIENTED_EDGE('',*,*,#335,.T.);
#538=ORIENTED_EDGE('',*,*,#338,.T.);
#539=ORIENTED_EDGE('',*,*,#341,.T.);
#540=ORIENTED_EDGE('',*,*,#344,.T.);
#541=ORIENTED_EDGE('',*,*,#346,.T.);
#542=ORIENTED_EDGE('',*,*,#350,.T.);
#543=ORIENTED_EDGE('',*,*,#353,.T.);
#544=ORIENTED_EDGE('',*,*,#356,.T.);
#545=ORIENTED_EDGE('',*,*,#359,.T.);
#546=ORIENTED_EDGE('',*,*,#362,.T.);
#547=ORIENTED_EDGE('',*,*,#364,.T.);
#548=ORIENTED_EDGE('',*,*,#368,.T.);
#549=ORIENTED_EDGE('',*,*,#371,.T.);
#550=ORIENTED_EDGE('',*,*,#374,.T.);
#551=ORIENTED_EDGE('',*,*,#377,.T.);
#552=ORIENTED_EDGE('',*,*,#380,.T.);
#553=ORIENTED_EDGE('',*,*,#382,.T.);
#554=ORIENTED_EDGE('',*,*,#386,.T.);
#555=ORIENTED_EDGE('',*,*,#389,.T.);
#556=ORIENTED_EDGE('',*,*,#392,.T.);
#557=ORIENTED_EDGE('',*,*,#395,.T.);
#558=ORIENTED_EDGE('',*,*,#398,.T.);
#559=CYLINDRICAL_SURFACE('',#615,0.15);
#560=CYLINDRICAL_SURFACE('',#646,1.2);
#561=ADVANCED_FACE('',(#51),#559,.F.);
#562=ADVANCED_FACE('',(#52),#21,.T.);
#563=ADVANCED_FACE('',(#53),#22,.T.);
#564=ADVANCED_FACE('',(#54),#23,.T.);
#565=ADVANCED_FACE('',(#55),#24,.T.);
#566=ADVANCED_FACE('',(#56),#25,.T.);
#567=ADVANCED_FACE('',(#57),#26,.T.);
#568=ADVANCED_FACE('',(#58),#27,.T.);
#569=ADVANCED_FACE('',(#59),#28,.T.);
#570=ADVANCED_FACE('',(#60),#29,.T.);
#571=ADVANCED_FACE('',(#61),#30,.T.);
#572=ADVANCED_FACE('',(#62),#31,.T.);
#573=ADVANCED_FACE('',(#63),#32,.T.);
#574=ADVANCED_FACE('',(#64),#33,.T.);
#575=ADVANCED_FACE('',(#65),#34,.T.);
#576=ADVANCED_FACE('',(#66),#35,.T.);
#577=ADVANCED_FACE('',(#67),#36,.T.);
#578=ADVANCED_FACE('',(#68),#37,.T.);
#579=ADVANCED_FACE('',(#69),#38,.T.);
#580=ADVANCED_FACE('',(#70),#39,.T.);
#581=ADVANCED_FACE('',(#71),#40,.T.);
#582=ADVANCED_FACE('',(#72),#41,.T.);
#583=ADVANCED_FACE('',(#73),#42,.T.);
#584=ADVANCED_FACE('',(#74),#43,.T.);
#585=ADVANCED_FACE('',(#75),#44,.T.);
#586=ADVANCED_FACE('',(#76),#45,.T.);
#587=ADVANCED_FACE('',(#77),#46,.T.);
#588=ADVANCED_FACE('',(#78),#47,.T.);
#589=ADVANCED_FACE('',(#79),#48,.T.);
#590=ADVANCED_FACE('',(#80),#560,.T.);
#591=ADVANCED_FACE('',(#81,#15),#49,.T.);
#592=ADVANCED_FACE('',(#82,#16,#17,#18,#19,#20),#50,.F.);
#593=CLOSED_SHELL('',(#561,#562,#563,#564,#565,#566,#567,#568,#569,#570,
#571,#572,#573,#574,#575,#576,#577,#578,#579,#580,#581,#582,#583,#584,#585,
#586,#587,#588,#589,#590,#591,#592));
#594=DERIVED_UNIT_ELEMENT(#596,1.);
#595=DERIVED_UNIT_ELEMENT(#970,-3.);
#596=(
CONVERSION_BASED_UNIT('gram',#598)
MASS_UNIT()
NAMED_UNIT(#967)
);
#597=(
MASS_UNIT()
NAMED_UNIT(*)
SI_UNIT(.KILO.,.GRAM.)
);
#598=MASS_MEASURE_WITH_UNIT(MASS_MEASURE(0.001),#597);
#599=DERIVED_UNIT((#594,#595));
#600=MEASURE_REPRESENTATION_ITEM('density measure',
POSITIVE_RATIO_MEASURE(1.),#599);
#601=PROPERTY_DEFINITION_REPRESENTATION(#606,#603);
#602=PROPERTY_DEFINITION_REPRESENTATION(#607,#604);
#603=REPRESENTATION('material name',(#605),#964);
#604=REPRESENTATION('density',(#600),#964);
#605=DESCRIPTIVE_REPRESENTATION_ITEM('Generic','Generic');
#606=PROPERTY_DEFINITION('material property','material name',#978);
#607=PROPERTY_DEFINITION('material property','density of part',#978);
#608=DATE_TIME_ROLE('creation_date');
#609=APPLIED_DATE_AND_TIME_ASSIGNMENT(#610,#608,(#978));
#610=DATE_AND_TIME(#611,#612);
#611=CALENDAR_DATE(2026,4,7);
#612=LOCAL_TIME(0,0,0.,#613);
#613=COORDINATED_UNIVERSAL_TIME_OFFSET(0,0,.BEHIND.);
#614=AXIS2_PLACEMENT_3D('',#799,#651,#652);
#615=AXIS2_PLACEMENT_3D('',#800,#653,#654);
#616=AXIS2_PLACEMENT_3D('',#802,#655,#656);
#617=AXIS2_PLACEMENT_3D('',#805,#658,#659);
#618=AXIS2_PLACEMENT_3D('',#806,#660,#661);
#619=AXIS2_PLACEMENT_3D('',#815,#666,#667);
#620=AXIS2_PLACEMENT_3D('',#821,#671,#672);
#621=AXIS2_PLACEMENT_3D('',#827,#676,#677);
#622=AXIS2_PLACEMENT_3D('',#833,#681,#682);
#623=AXIS2_PLACEMENT_3D('',#839,#686,#687);
#624=AXIS2_PLACEMENT_3D('',#842,#690,#691);
#625=AXIS2_PLACEMENT_3D('',#843,#692,#693);
#626=AXIS2_PLACEMENT_3D('',#852,#698,#699);
#627=AXIS2_PLACEMENT_3D('',#858,#703,#704);
#628=AXIS2_PLACEMENT_3D('',#864,#708,#709);
#629=AXIS2_PLACEMENT_3D('',#870,#713,#714);
#630=AXIS2_PLACEMENT_3D('',#876,#718,#719);
#631=AXIS2_PLACEMENT_3D('',#879,#722,#723);
#632=AXIS2_PLACEMENT_3D('',#880,#724,#725);
#633=AXIS2_PLACEMENT_3D('',#889,#730,#731);
#634=AXIS2_PLACEMENT_3D('',#895,#735,#736);
#635=AXIS2_PLACEMENT_3D('',#901,#740,#741);
#636=AXIS2_PLACEMENT_3D('',#907,#745,#746);
#637=AXIS2_PLACEMENT_3D('',#913,#750,#751);
#638=AXIS2_PLACEMENT_3D('',#916,#754,#755);
#639=AXIS2_PLACEMENT_3D('',#917,#756,#757);
#640=AXIS2_PLACEMENT_3D('',#926,#762,#763);
#641=AXIS2_PLACEMENT_3D('',#932,#767,#768);
#642=AXIS2_PLACEMENT_3D('',#938,#772,#773);
#643=AXIS2_PLACEMENT_3D('',#944,#777,#778);
#644=AXIS2_PLACEMENT_3D('',#950,#782,#783);
#645=AXIS2_PLACEMENT_3D('',#953,#786,#787);
#646=AXIS2_PLACEMENT_3D('',#954,#788,#789);
#647=AXIS2_PLACEMENT_3D('',#956,#790,#791);
#648=AXIS2_PLACEMENT_3D('',#959,#793,#794);
#649=AXIS2_PLACEMENT_3D('',#960,#795,#796);
#650=AXIS2_PLACEMENT_3D('',#961,#797,#798);
#651=DIRECTION('axis',(0.,0.,1.));
#652=DIRECTION('refdir',(1.,0.,0.));
#653=DIRECTION('center_axis',(0.,1.,0.));
#654=DIRECTION('ref_axis',(-1.,0.,0.));
#655=DIRECTION('center_axis',(0.,1.,0.));
#656=DIRECTION('ref_axis',(-1.,0.,0.));
#657=DIRECTION('',(0.,1.,0.));
#658=DIRECTION('center_axis',(0.,-1.,0.));
#659=DIRECTION('ref_axis',(-1.,0.,0.));
#660=DIRECTION('center_axis',(0.707106781186548,0.,0.707106781186547));
#661=DIRECTION('ref_axis',(-0.707106781186547,0.,0.707106781186548));
#662=DIRECTION('',(0.707106781186547,0.,-0.707106781186548));
#663=DIRECTION('',(0.,-1.,0.));
#664=DIRECTION('',(-0.707106781186547,0.,0.707106781186548));
#665=DIRECTION('',(0.,-1.,0.));
#666=DIRECTION('center_axis',(0.707106781186547,0.,-0.707106781186548));
#667=DIRECTION('ref_axis',(0.707106781186548,0.,0.707106781186547));
#668=DIRECTION('',(-0.707106781186548,0.,-0.707106781186547));
#669=DIRECTION('',(0.707106781186548,0.,0.707106781186547));
#670=DIRECTION('',(0.,-1.,0.));
#671=DIRECTION('center_axis',(-0.707106781186548,0.,-0.707106781186547));
#672=DIRECTION('ref_axis',(0.707106781186547,0.,-0.707106781186548));
#673=DIRECTION('',(-0.707106781186547,0.,0.707106781186548));
#674=DIRECTION('',(0.707106781186547,0.,-0.707106781186548));
#675=DIRECTION('',(0.,-1.,0.));
#676=DIRECTION('center_axis',(0.707106781186548,0.,-0.707106781186547));
#677=DIRECTION('ref_axis',(0.707106781186547,0.,0.707106781186548));
#678=DIRECTION('',(-0.707106781186547,0.,-0.707106781186548));
#679=DIRECTION('',(0.707106781186547,0.,0.707106781186548));
#680=DIRECTION('',(0.,-1.,0.));
#681=DIRECTION('center_axis',(-0.707106781186547,0.,-0.707106781186548));
#682=DIRECTION('ref_axis',(0.707106781186548,0.,-0.707106781186547));
#683=DIRECTION('',(-0.707106781186548,0.,0.707106781186547));
#684=DIRECTION('',(0.707106781186548,0.,-0.707106781186547));
#685=DIRECTION('',(0.,-1.,0.));
#686=DIRECTION('center_axis',(-0.707106781186548,0.,0.707106781186547));
#687=DIRECTION('ref_axis',(-0.707106781186547,0.,-0.707106781186548));
#688=DIRECTION('',(0.707106781186547,0.,0.707106781186548));
#689=DIRECTION('',(-0.707106781186547,0.,-0.707106781186548));
#690=DIRECTION('center_axis',(0.,-1.,0.));
#691=DIRECTION('ref_axis',(0.,0.,-1.));
#692=DIRECTION('center_axis',(0.707106781186547,0.,0.707106781186548));
#693=DIRECTION('ref_axis',(-0.707106781186548,0.,0.707106781186547));
#694=DIRECTION('',(0.707106781186548,0.,-0.707106781186547));
#695=DIRECTION('',(0.,-1.,0.));
#696=DIRECTION('',(-0.707106781186548,0.,0.707106781186547));
#697=DIRECTION('',(0.,-1.,0.));
#698=DIRECTION('center_axis',(0.707106781186547,0.,-0.707106781186548));
#699=DIRECTION('ref_axis',(0.707106781186548,0.,0.707106781186547));
#700=DIRECTION('',(-0.707106781186548,0.,-0.707106781186547));
#701=DIRECTION('',(0.707106781186548,0.,0.707106781186547));
#702=DIRECTION('',(0.,-1.,0.));
#703=DIRECTION('center_axis',(-0.707106781186548,0.,-0.707106781186548));
#704=DIRECTION('ref_axis',(0.707106781186548,0.,-0.707106781186548));
#705=DIRECTION('',(-0.707106781186548,0.,0.707106781186548));
#706=DIRECTION('',(0.707106781186548,0.,-0.707106781186548));
#707=DIRECTION('',(0.,-1.,0.));
#708=DIRECTION('center_axis',(-0.707106781186547,0.,0.707106781186548));
#709=DIRECTION('ref_axis',(-0.707106781186548,0.,-0.707106781186547));
#710=DIRECTION('',(0.707106781186548,0.,0.707106781186547));
#711=DIRECTION('',(-0.707106781186548,0.,-0.707106781186547));
#712=DIRECTION('',(0.,-1.,0.));
#713=DIRECTION('center_axis',(-0.707106781186547,0.,-0.707106781186548));
#714=DIRECTION('ref_axis',(0.707106781186548,0.,-0.707106781186547));
#715=DIRECTION('',(-0.707106781186548,0.,0.707106781186547));
#716=DIRECTION('',(0.707106781186548,0.,-0.707106781186547));
#717=DIRECTION('',(0.,-1.,0.));
#718=DIRECTION('center_axis',(-0.707106781186548,0.,0.707106781186547));
#719=DIRECTION('ref_axis',(-0.707106781186547,0.,-0.707106781186548));
#720=DIRECTION('',(0.707106781186547,0.,0.707106781186548));
#721=DIRECTION('',(-0.707106781186547,0.,-0.707106781186548));
#722=DIRECTION('center_axis',(0.,-1.,0.));
#723=DIRECTION('ref_axis',(0.,0.,-1.));
#724=DIRECTION('center_axis',(0.707106781186548,0.,0.707106781186547));
#725=DIRECTION('ref_axis',(-0.707106781186547,0.,0.707106781186548));
#726=DIRECTION('',(0.707106781186547,0.,-0.707106781186548));
#727=DIRECTION('',(0.,-1.,0.));
#728=DIRECTION('',(-0.707106781186547,0.,0.707106781186548));
#729=DIRECTION('',(0.,-1.,0.));
#730=DIRECTION('center_axis',(0.707106781186547,0.,-0.707106781186548));
#731=DIRECTION('ref_axis',(0.707106781186548,0.,0.707106781186547));
#732=DIRECTION('',(-0.707106781186548,0.,-0.707106781186547));
#733=DIRECTION('',(0.707106781186548,0.,0.707106781186547));
#734=DIRECTION('',(0.,-1.,0.));
#735=DIRECTION('center_axis',(0.707106781186547,0.,0.707106781186548));
#736=DIRECTION('ref_axis',(-0.707106781186548,0.,0.707106781186547));
#737=DIRECTION('',(0.707106781186548,0.,-0.707106781186547));
#738=DIRECTION('',(-0.707106781186548,0.,0.707106781186547));
#739=DIRECTION('',(0.,-1.,0.));
#740=DIRECTION('center_axis',(0.707106781186548,0.,-0.707106781186547));
#741=DIRECTION('ref_axis',(0.707106781186547,0.,0.707106781186548));
#742=DIRECTION('',(-0.707106781186547,0.,-0.707106781186548));
#743=DIRECTION('',(0.707106781186547,0.,0.707106781186548));
#744=DIRECTION('',(0.,-1.,0.));
#745=DIRECTION('center_axis',(-0.707106781186547,0.,-0.707106781186548));
#746=DIRECTION('ref_axis',(0.707106781186548,0.,-0.707106781186547));
#747=DIRECTION('',(-0.707106781186548,0.,0.707106781186547));
#748=DIRECTION('',(0.707106781186548,0.,-0.707106781186547));
#749=DIRECTION('',(0.,-1.,0.));
#750=DIRECTION('center_axis',(-0.707106781186547,0.,0.707106781186548));
#751=DIRECTION('ref_axis',(-0.707106781186548,0.,-0.707106781186547));
#752=DIRECTION('',(0.707106781186548,0.,0.707106781186547));
#753=DIRECTION('',(-0.707106781186548,0.,-0.707106781186547));
#754=DIRECTION('center_axis',(0.,-1.,0.));
#755=DIRECTION('ref_axis',(0.,0.,-1.));
#756=DIRECTION('center_axis',(-0.707106781186547,0.,-0.707106781186548));
#757=DIRECTION('ref_axis',(0.707106781186548,0.,-0.707106781186547));
#758=DIRECTION('',(-0.707106781186548,0.,0.707106781186547));
#759=DIRECTION('',(0.,-1.,0.));
#760=DIRECTION('',(0.707106781186548,0.,-0.707106781186547));
#761=DIRECTION('',(0.,-1.,0.));
#762=DIRECTION('center_axis',(-0.707106781186548,0.,0.707106781186547));
#763=DIRECTION('ref_axis',(-0.707106781186547,0.,-0.707106781186548));
#764=DIRECTION('',(0.707106781186547,0.,0.707106781186548));
#765=DIRECTION('',(-0.707106781186547,0.,-0.707106781186548));
#766=DIRECTION('',(0.,-1.,0.));
#767=DIRECTION('center_axis',(0.707106781186548,0.,0.707106781186547));
#768=DIRECTION('ref_axis',(-0.707106781186547,0.,0.707106781186548));
#769=DIRECTION('',(0.707106781186547,0.,-0.707106781186548));
#770=DIRECTION('',(-0.707106781186547,0.,0.707106781186548));
#771=DIRECTION('',(0.,-1.,0.));
#772=DIRECTION('center_axis',(-0.707106781186548,0.,0.707106781186547));
#773=DIRECTION('ref_axis',(-0.707106781186547,0.,-0.707106781186548));
#774=DIRECTION('',(0.707106781186547,0.,0.707106781186548));
#775=DIRECTION('',(-0.707106781186547,0.,-0.707106781186548));
#776=DIRECTION('',(0.,-1.,0.));
#777=DIRECTION('center_axis',(0.707106781186547,0.,0.707106781186548));
#778=DIRECTION('ref_axis',(-0.707106781186548,0.,0.707106781186547));
#779=DIRECTION('',(0.707106781186548,0.,-0.707106781186547));
#780=DIRECTION('',(-0.707106781186548,0.,0.707106781186547));
#781=DIRECTION('',(0.,-1.,0.));
#782=DIRECTION('center_axis',(0.707106781186548,0.,-0.707106781186547));
#783=DIRECTION('ref_axis',(0.707106781186547,0.,0.707106781186548));
#784=DIRECTION('',(-0.707106781186547,0.,-0.707106781186548));
#785=DIRECTION('',(0.707106781186547,0.,0.707106781186548));
#786=DIRECTION('center_axis',(0.,-1.,0.));
#787=DIRECTION('ref_axis',(0.,0.,-1.));
#788=DIRECTION('center_axis',(0.,1.,0.));
#789=DIRECTION('ref_axis',(-1.,0.,0.));
#790=DIRECTION('center_axis',(0.,1.,0.));
#791=DIRECTION('ref_axis',(-1.,0.,0.));
#792=DIRECTION('',(0.,-1.,0.));
#793=DIRECTION('center_axis',(0.,1.,0.));
#794=DIRECTION('ref_axis',(-1.,0.,0.));
#795=DIRECTION('center_axis',(0.,1.,0.));
#796=DIRECTION('ref_axis',(0.,0.,1.));
#797=DIRECTION('center_axis',(0.,1.,0.));
#798=DIRECTION('ref_axis',(0.,0.,1.));
#799=CARTESIAN_POINT('',(0.,0.,0.));
#800=CARTESIAN_POINT('Origin',(-0.865,0.,0.));
#801=CARTESIAN_POINT('',(-0.715,0.,-1.83697019872103E-17));
#802=CARTESIAN_POINT('Origin',(-0.865,0.,0.));
#803=CARTESIAN_POINT('',(-0.715,0.25,-1.83697019872103E-17));
#804=CARTESIAN_POINT('',(-0.715,0.,-1.83697019872103E-17));
#805=CARTESIAN_POINT('Origin',(-0.865,0.25,0.));
#806=CARTESIAN_POINT('Origin',(0.25,0.,-0.5));
#807=CARTESIAN_POINT('',(1.53080849893419E-17,0.,-0.25));
#808=CARTESIAN_POINT('',(0.25,0.,-0.5));
#809=CARTESIAN_POINT('',(0.0625,0.,-0.3125));
#810=CARTESIAN_POINT('',(0.,-2.,-0.25));
#811=CARTESIAN_POINT('',(1.53080849893419E-17,0.,-0.25));
#812=CARTESIAN_POINT('',(0.25,-2.,-0.5));
#813=CARTESIAN_POINT('',(1.53080849893419E-17,-2.,-0.25));
#814=CARTESIAN_POINT('',(0.25,0.,-0.5));
#815=CARTESIAN_POINT('Origin',(0.1875,0.,-0.5625));
#816=CARTESIAN_POINT('',(0.1875,0.,-0.5625));
#817=CARTESIAN_POINT('',(0.28125,0.,-0.46875));
#818=CARTESIAN_POINT('',(0.1875,-2.,-0.5625));
#819=CARTESIAN_POINT('',(0.25,-2.,-0.5));
#820=CARTESIAN_POINT('',(0.1875,0.,-0.5625));
#821=CARTESIAN_POINT('Origin',(2.18547839493141E-17,0.,-0.375));
#822=CARTESIAN_POINT('',(2.29621274840129E-17,0.,-0.375));
#823=CARTESIAN_POINT('',(-0.09375,0.,-0.28125));
#824=CARTESIAN_POINT('',(4.37095678986282E-17,-2.,-0.375));
#825=CARTESIAN_POINT('',(0.1875,-2.,-0.5625));
#826=CARTESIAN_POINT('',(2.29621274840129E-17,0.,-0.375));
#827=CARTESIAN_POINT('Origin',(-0.1875,0.,-0.5625));
#828=CARTESIAN_POINT('',(-0.1875,0.,-0.5625));
#829=CARTESIAN_POINT('',(5.46369598732853E-17,0.,-0.375));
#830=CARTESIAN_POINT('',(-0.1875,-2.,-0.5625));
#831=CARTESIAN_POINT('',(2.18547839493141E-17,-2.,-0.375));
#832=CARTESIAN_POINT('',(-0.1875,0.,-0.5625));
#833=CARTESIAN_POINT('Origin',(-0.25,0.,-0.5));
#834=CARTESIAN_POINT('',(-0.25,0.,-0.5));
#835=CARTESIAN_POINT('',(-0.3125,0.,-0.4375));
#836=CARTESIAN_POINT('',(-0.25,-2.,-0.5));
#837=CARTESIAN_POINT('',(-0.1875,-2.,-0.5625));
#838=CARTESIAN_POINT('',(-0.25,0.,-0.5));
#839=CARTESIAN_POINT('Origin',(0.,0.,-0.25));
#840=CARTESIAN_POINT('',(0.0625,0.,-0.1875));
#841=CARTESIAN_POINT('',(-0.25,-2.,-0.5));
#842=CARTESIAN_POINT('Origin',(4.37095678986282E-17,-2.,-0.40625));
#843=CARTESIAN_POINT('Origin',(-0.25,0.,-8.74191357972564E-17));
#844=CARTESIAN_POINT('',(-0.5,0.,0.25));
#845=CARTESIAN_POINT('',(-0.25,0.,-3.06161699786838E-17));
#846=CARTESIAN_POINT('',(-0.1875,0.,-0.0625000000000001));
#847=CARTESIAN_POINT('',(-0.5,-2.,0.25));
#848=CARTESIAN_POINT('',(-0.5,0.,0.25));
#849=CARTESIAN_POINT('',(-0.25,-2.,-2.18547839493141E-17));
#850=CARTESIAN_POINT('',(-0.5,-2.,0.25));
#851=CARTESIAN_POINT('',(-0.25,0.,-3.06161699786838E-17));
#852=CARTESIAN_POINT('Origin',(-0.5,0.,-0.25));
#853=CARTESIAN_POINT('',(-0.5,0.,-0.25));
#854=CARTESIAN_POINT('',(-0.3125,0.,-0.0625));
#855=CARTESIAN_POINT('',(-0.5,-2.,-0.25));
#856=CARTESIAN_POINT('',(-0.25,-2.,-3.06161699786838E-17));
#857=CARTESIAN_POINT('',(-0.5,0.,-0.25));
#858=CARTESIAN_POINT('Origin',(-0.5625,0.,-0.1875));
#859=CARTESIAN_POINT('',(-0.5625,0.,-0.1875));
#860=CARTESIAN_POINT('',(-0.46875,0.,-0.28125));
#861=CARTESIAN_POINT('',(-0.5625,-2.,-0.1875));
#862=CARTESIAN_POINT('',(-0.5,-2.,-0.25));
#863=CARTESIAN_POINT('',(-0.5625,0.,-0.1875));
#864=CARTESIAN_POINT('Origin',(-0.375,0.,-4.37095678986282E-17));
#865=CARTESIAN_POINT('',(-0.375,0.,-4.59242549680257E-17));
#866=CARTESIAN_POINT('',(-0.28125,0.,0.0937499999999999));
#867=CARTESIAN_POINT('',(-0.375,-2.,-4.37095678986282E-17));
#868=CARTESIAN_POINT('',(-0.5625,-2.,-0.1875));
#869=CARTESIAN_POINT('',(-0.375,0.,-4.59242549680257E-17));
#870=CARTESIAN_POINT('Origin',(-0.5625,0.,0.1875));
#871=CARTESIAN_POINT('',(-0.5625,0.,0.1875));
#872=CARTESIAN_POINT('',(-0.375,0.,-7.64917438225994E-17));
#873=CARTESIAN_POINT('',(-0.5625,-2.,0.1875));
#874=CARTESIAN_POINT('',(-0.375,-2.,-4.37095678986282E-17));
#875=CARTESIAN_POINT('',(-0.5625,0.,0.1875));
#876=CARTESIAN_POINT('Origin',(-0.5,0.,0.25));
#877=CARTESIAN_POINT('',(-0.4375,0.,0.3125));
#878=CARTESIAN_POINT('',(-0.5625,-2.,0.1875));
#879=CARTESIAN_POINT('Origin',(-0.40625,-2.,-6.55643518479423E-17));
#880=CARTESIAN_POINT('Origin',(0.5625,0.,0.1875));
#881=CARTESIAN_POINT('',(0.5,0.,0.25));
#882=CARTESIAN_POINT('',(0.5625,0.,0.1875));
#883=CARTESIAN_POINT('',(0.46875,0.,0.28125));
#884=CARTESIAN_POINT('',(0.5,-2.,0.25));
#885=CARTESIAN_POINT('',(0.5,0.,0.25));
#886=CARTESIAN_POINT('',(0.5625,-2.,0.1875));
#887=CARTESIAN_POINT('',(0.5,-2.,0.25));
#888=CARTESIAN_POINT('',(0.5625,0.,0.1875));
#889=CARTESIAN_POINT('Origin',(0.375,0.,0.));
#890=CARTESIAN_POINT('',(0.375,0.,0.));
#891=CARTESIAN_POINT('',(0.28125,0.,-0.09375));
#892=CARTESIAN_POINT('',(0.375,-2.,0.));
#893=CARTESIAN_POINT('',(0.5625,-2.,0.1875));
#894=CARTESIAN_POINT('',(0.375,0.,0.));
#895=CARTESIAN_POINT('Origin',(0.5625,0.,-0.1875));
#896=CARTESIAN_POINT('',(0.5625,0.,-0.1875));
#897=CARTESIAN_POINT('',(0.375,0.,4.37095678986282E-17));
#898=CARTESIAN_POINT('',(0.5625,-2.,-0.1875));
#899=CARTESIAN_POINT('',(0.375,-2.,0.));
#900=CARTESIAN_POINT('',(0.5625,0.,-0.1875));
#901=CARTESIAN_POINT('Origin',(0.5,0.,-0.25));
#902=CARTESIAN_POINT('',(0.5,0.,-0.25));
#903=CARTESIAN_POINT('',(0.4375,0.,-0.3125));
#904=CARTESIAN_POINT('',(0.5,-2.,-0.25));
#905=CARTESIAN_POINT('',(0.5625,-2.,-0.1875));
#906=CARTESIAN_POINT('',(0.5,0.,-0.25));
#907=CARTESIAN_POINT('Origin',(0.25,0.,4.37095678986282E-17));
#908=CARTESIAN_POINT('',(0.25,0.,0.));
#909=CARTESIAN_POINT('',(0.1875,0.,0.0625));
#910=CARTESIAN_POINT('',(0.25,-2.,0.));
#911=CARTESIAN_POINT('',(0.5,-2.,-0.25));
#912=CARTESIAN_POINT('',(0.25,0.,0.));
#913=CARTESIAN_POINT('Origin',(0.5,0.,0.25));
#914=CARTESIAN_POINT('',(0.3125,0.,0.0625));
#915=CARTESIAN_POINT('',(0.25,-2.,0.));
#916=CARTESIAN_POINT('Origin',(0.40625,-2.,2.18547839493141E-17));
#917=CARTESIAN_POINT('Origin',(-0.25,0.,0.5));
#918=CARTESIAN_POINT('',(-4.59242549680257E-17,0.,0.25));
#919=CARTESIAN_POINT('',(-0.25,0.,0.5));
#920=CARTESIAN_POINT('',(-0.0625000000000001,0.,0.3125));
#921=CARTESIAN_POINT('',(-4.37095678986282E-17,-2.,0.25));
#922=CARTESIAN_POINT('',(-4.59242549680257E-17,0.,0.25));
#923=CARTESIAN_POINT('',(-0.25,-2.,0.5));
#924=CARTESIAN_POINT('',(-4.59242549680257E-17,-2.,0.25));
#925=CARTESIAN_POINT('',(-0.25,0.,0.5));
#926=CARTESIAN_POINT('Origin',(-0.1875,0.,0.5625));
#927=CARTESIAN_POINT('',(-0.1875,0.,0.5625));
#928=CARTESIAN_POINT('',(-0.28125,0.,0.46875));
#929=CARTESIAN_POINT('',(-0.1875,-2.,0.5625));
#930=CARTESIAN_POINT('',(-0.25,-2.,0.5));
#931=CARTESIAN_POINT('',(-0.1875,0.,0.5625));
#932=CARTESIAN_POINT('Origin',(-8.74191357972564E-17,0.,0.375));
#933=CARTESIAN_POINT('',(-6.88863824520386E-17,0.,0.375));
#934=CARTESIAN_POINT('',(0.0937499999999999,0.,0.28125));
#935=CARTESIAN_POINT('',(-8.74191357972564E-17,-2.,0.375));
#936=CARTESIAN_POINT('',(-0.1875,-2.,0.5625));
#937=CARTESIAN_POINT('',(-6.88863824520386E-17,0.,0.375));
#938=CARTESIAN_POINT('Origin',(0.1875,0.,0.5625));
#939=CARTESIAN_POINT('',(0.1875,0.,0.5625));
#940=CARTESIAN_POINT('',(-1.20201311721228E-16,0.,0.375));
#941=CARTESIAN_POINT('',(0.1875,-2.,0.5625));
#942=CARTESIAN_POINT('',(-6.55643518479423E-17,-2.,0.375));
#943=CARTESIAN_POINT('',(0.1875,0.,0.5625));
#944=CARTESIAN_POINT('Origin',(0.25,0.,0.5));
#945=CARTESIAN_POINT('',(0.25,0.,0.5));
#946=CARTESIAN_POINT('',(0.3125,0.,0.4375));
#947=CARTESIAN_POINT('',(0.25,-2.,0.5));
#948=CARTESIAN_POINT('',(0.1875,-2.,0.5625));
#949=CARTESIAN_POINT('',(0.25,0.,0.5));
#950=CARTESIAN_POINT('Origin',(-8.74191357972564E-17,0.,0.25));
#951=CARTESIAN_POINT('',(-0.0625000000000001,0.,0.1875));
#952=CARTESIAN_POINT('',(0.25,-2.,0.5));
#953=CARTESIAN_POINT('Origin',(-8.74191357972564E-17,-2.,0.40625));
#954=CARTESIAN_POINT('Origin',(0.,0.,0.));
#955=CARTESIAN_POINT('',(1.2,0.25,-1.46957615897682E-16));
#956=CARTESIAN_POINT('Origin',(0.,0.25,0.));
#957=CARTESIAN_POINT('',(1.2,0.,-1.46957615897682E-16));
#958=CARTESIAN_POINT('',(1.2,0.,-1.46957615897682E-16));
#959=CARTESIAN_POINT('Origin',(0.,0.,0.));
#960=CARTESIAN_POINT('Origin',(0.,0.25,0.));
#961=CARTESIAN_POINT('Origin',(0.,0.,0.));
#962=UNCERTAINTY_MEASURE_WITH_UNIT(LENGTH_MEASURE(0.000393700787401575),
#968,'DISTANCE_ACCURACY_VALUE',
'Maximum model space distance between geometric entities at asserted c
onnectivities');
#963=UNCERTAINTY_MEASURE_WITH_UNIT(LENGTH_MEASURE(0.000393700787401575),
#968,'DISTANCE_ACCURACY_VALUE',
'Maximum model space distance between geometric entities at asserted c
onnectivities');
#964=(
GEOMETRIC_REPRESENTATION_CONTEXT(3)
GLOBAL_UNCERTAINTY_ASSIGNED_CONTEXT((#962))
GLOBAL_UNIT_ASSIGNED_CONTEXT((#968,#972,#973))
REPRESENTATION_CONTEXT('','3D')
);
#965=(
GEOMETRIC_REPRESENTATION_CONTEXT(3)
GLOBAL_UNCERTAINTY_ASSIGNED_CONTEXT((#963))
GLOBAL_UNIT_ASSIGNED_CONTEXT((#968,#972,#973))
REPRESENTATION_CONTEXT('','3D')
);
#966=DIMENSIONAL_EXPONENTS(1.,0.,0.,0.,0.,0.,0.);
#967=DIMENSIONAL_EXPONENTS(0.,1.,0.,0.,0.,0.,0.);
#968=(
CONVERSION_BASED_UNIT('inch',#971)
LENGTH_UNIT()
NAMED_UNIT(#966)
);
#969=(
LENGTH_UNIT()
NAMED_UNIT(*)
SI_UNIT(.MILLI.,.METRE.)
);
#970=(
LENGTH_UNIT()
NAMED_UNIT(*)
SI_UNIT(.CENTI.,.METRE.)
);
#971=LENGTH_MEASURE_WITH_UNIT(LENGTH_MEASURE(25.4),#969);
#972=(
NAMED_UNIT(*)
PLANE_ANGLE_UNIT()
SI_UNIT($,.RADIAN.)
);
#973=(
NAMED_UNIT(*)
SI_UNIT($,.STERADIAN.)
SOLID_ANGLE_UNIT()
);
#974=SHAPE_DEFINITION_REPRESENTATION(#975,#976);
#975=PRODUCT_DEFINITION_SHAPE('',$,#978);
#976=SHAPE_REPRESENTATION('',(#614),#964);
#977=PRODUCT_DEFINITION_CONTEXT('part definition',#982,'design');
#978=PRODUCT_DEFINITION('OGPlatform','OGPlatform',#979,#977);
#979=PRODUCT_DEFINITION_FORMATION('',$,#984);
#980=PRODUCT_RELATED_PRODUCT_CATEGORY('OGPlatform','OGPlatform',(#984));
#981=APPLICATION_PROTOCOL_DEFINITION('international standard',
'automotive_design',2009,#982);
#982=APPLICATION_CONTEXT(
'Core Data for Automotive Mechanical Design Process');
#983=PRODUCT_CONTEXT('part definition',#982,'mechanical');
#984=PRODUCT('OGPlatform','OGPlatform',$,(#983));
#985=PRESENTATION_STYLE_ASSIGNMENT((#986));
#986=SURFACE_STYLE_USAGE(.BOTH.,#989);
#987=SURFACE_STYLE_RENDERING_WITH_PROPERTIES($,#993,(#988));
#988=SURFACE_STYLE_TRANSPARENT(0.);
#989=SURFACE_SIDE_STYLE('',(#990,#987));
#990=SURFACE_STYLE_FILL_AREA(#991);
#991=FILL_AREA_STYLE('',(#992));
#992=FILL_AREA_STYLE_COLOUR('',#993);
#993=COLOUR_RGB('',0.749019607843137,0.749019607843137,0.749019607843137);
ENDSEC;
END-ISO-10303-21;
