ISO-10303-21;
HEADER;
/* Generated by software containing ST-Developer
 * from STEP Tools, Inc. (www.steptools.com) 
 */

FILE_DESCRIPTION(
/* description */ (''),
/* implementation_level */ '2;1');

FILE_NAME(
/* name */ 'OGRobotBase.stp',
/* time_stamp */ '2026-07-08T19:00:54-05:00',
/* author */ ('machnach0'),
/* organization */ (''),
/* preprocessor_version */ 'ST-DEVELOPER v20.1',
/* originating_system */ 'Autodesk Inventor 2027',
/* authorisation */ '');

FILE_SCHEMA (('AUTOMOTIVE_DESIGN { 1 0 10303 214 3 1 1 }'));
ENDSEC;

DATA;
#10=MECHANICAL_DESIGN_GEOMETRIC_PRESENTATION_REPRESENTATION('',(#13),#661);
#11=SHAPE_REPRESENTATION_RELATIONSHIP('SRR','None',#672,#12);
#12=ADVANCED_BREP_SHAPE_REPRESENTATION('',(#14),#660);
#13=STYLED_ITEM('',(#681),#14);
#14=MANIFOLD_SOLID_BREP('Solid1',#409);
#15=FACE_BOUND('',#48,.T.);
#16=FACE_BOUND('',#54,.T.);
#17=FACE_BOUND('',#56,.T.);
#18=FACE_BOUND('',#59,.T.);
#19=FACE_OUTER_BOUND('',#39,.T.);
#20=FACE_OUTER_BOUND('',#40,.T.);
#21=FACE_OUTER_BOUND('',#41,.T.);
#22=FACE_OUTER_BOUND('',#42,.T.);
#23=FACE_OUTER_BOUND('',#43,.T.);
#24=FACE_OUTER_BOUND('',#44,.T.);
#25=FACE_OUTER_BOUND('',#45,.T.);
#26=FACE_OUTER_BOUND('',#46,.T.);
#27=FACE_OUTER_BOUND('',#47,.T.);
#28=FACE_OUTER_BOUND('',#49,.T.);
#29=FACE_OUTER_BOUND('',#50,.T.);
#30=FACE_OUTER_BOUND('',#51,.T.);
#31=FACE_OUTER_BOUND('',#52,.T.);
#32=FACE_OUTER_BOUND('',#53,.T.);
#33=FACE_OUTER_BOUND('',#55,.T.);
#34=FACE_OUTER_BOUND('',#57,.T.);
#35=FACE_OUTER_BOUND('',#58,.T.);
#36=FACE_OUTER_BOUND('',#60,.T.);
#37=FACE_OUTER_BOUND('',#61,.T.);
#38=FACE_OUTER_BOUND('',#62,.T.);
#39=EDGE_LOOP('',(#261,#262,#263,#264));
#40=EDGE_LOOP('',(#265,#266,#267,#268));
#41=EDGE_LOOP('',(#269,#270,#271,#272));
#42=EDGE_LOOP('',(#273,#274,#275,#276,#277,#278,#279,#280));
#43=EDGE_LOOP('',(#281,#282,#283,#284,#285,#286));
#44=EDGE_LOOP('',(#287,#288,#289,#290,#291,#292,#293,#294));
#45=EDGE_LOOP('',(#295,#296,#297,#298));
#46=EDGE_LOOP('',(#299,#300,#301,#302,#303,#304));
#47=EDGE_LOOP('',(#305,#306,#307,#308));
#48=EDGE_LOOP('',(#309,#310,#311,#312));
#49=EDGE_LOOP('',(#313,#314,#315,#316));
#50=EDGE_LOOP('',(#317,#318,#319,#320));
#51=EDGE_LOOP('',(#321,#322,#323,#324));
#52=EDGE_LOOP('',(#325,#326,#327,#328));
#53=EDGE_LOOP('',(#329,#330,#331,#332));
#54=EDGE_LOOP('',(#333,#334,#335,#336));
#55=EDGE_LOOP('',(#337,#338,#339,#340));
#56=EDGE_LOOP('',(#341,#342,#343,#344));
#57=EDGE_LOOP('',(#345,#346,#347,#348));
#58=EDGE_LOOP('',(#349,#350,#351,#352));
#59=EDGE_LOOP('',(#353,#354,#355,#356));
#60=EDGE_LOOP('',(#357,#358,#359,#360));
#61=EDGE_LOOP('',(#361,#362,#363,#364));
#62=EDGE_LOOP('',(#365,#366,#367,#368));
#63=LINE('',#551,#117);
#64=LINE('',#553,#118);
#65=LINE('',#555,#119);
#66=LINE('',#556,#120);
#67=LINE('',#560,#121);
#68=LINE('',#562,#122);
#69=LINE('',#564,#123);
#70=LINE('',#565,#124);
#71=LINE('',#569,#125);
#72=LINE('',#571,#126);
#73=LINE('',#573,#127);
#74=LINE('',#574,#128);
#75=LINE('',#577,#129);
#76=LINE('',#579,#130);
#77=LINE('',#580,#131);
#78=LINE('',#581,#132);
#79=LINE('',#582,#133);
#80=LINE('',#585,#134);
#81=LINE('',#587,#135);
#82=LINE('',#589,#136);
#83=LINE('',#590,#137);
#84=LINE('',#592,#138);
#85=LINE('',#593,#139);
#86=LINE('',#595,#140);
#87=LINE('',#596,#141);
#88=LINE('',#599,#142);
#89=LINE('',#601,#143);
#90=LINE('',#602,#144);
#91=LINE('',#604,#145);
#92=LINE('',#605,#146);
#93=LINE('',#609,#147);
#94=LINE('',#611,#148);
#95=LINE('',#613,#149);
#96=LINE('',#614,#150);
#97=LINE('',#617,#151);
#98=LINE('',#619,#152);
#99=LINE('',#620,#153);
#100=LINE('',#623,#154);
#101=LINE('',#624,#155);
#102=LINE('',#627,#156);
#103=LINE('',#628,#157);
#104=LINE('',#630,#158);
#105=LINE('',#634,#159);
#106=LINE('',#636,#160);
#107=LINE('',#638,#161);
#108=LINE('',#639,#162);
#109=LINE('',#643,#163);
#110=LINE('',#644,#164);
#111=LINE('',#645,#165);
#112=LINE('',#648,#166);
#113=LINE('',#649,#167);
#114=LINE('',#652,#168);
#115=LINE('',#653,#169);
#116=LINE('',#655,#170);
#117=VECTOR('',#455,0.393700787401575);
#118=VECTOR('',#456,0.393700787401575);
#119=VECTOR('',#457,0.393700787401575);
#120=VECTOR('',#458,0.393700787401575);
#121=VECTOR('',#461,0.393700787401575);
#122=VECTOR('',#462,0.393700787401575);
#123=VECTOR('',#463,0.393700787401575);
#124=VECTOR('',#464,0.393700787401575);
#125=VECTOR('',#467,0.393700787401575);
#126=VECTOR('',#468,0.393700787401575);
#127=VECTOR('',#469,0.393700787401575);
#128=VECTOR('',#470,0.393700787401575);
#129=VECTOR('',#473,0.393700787401575);
#130=VECTOR('',#474,0.393700787401575);
#131=VECTOR('',#475,0.393700787401575);
#132=VECTOR('',#476,0.393700787401575);
#133=VECTOR('',#477,0.393700787401575);
#134=VECTOR('',#480,0.393700787401575);
#135=VECTOR('',#481,0.393700787401575);
#136=VECTOR('',#482,0.393700787401575);
#137=VECTOR('',#483,0.393700787401575);
#138=VECTOR('',#486,0.393700787401575);
#139=VECTOR('',#487,0.393700787401575);
#140=VECTOR('',#488,0.393700787401575);
#141=VECTOR('',#489,0.393700787401575);
#142=VECTOR('',#492,0.393700787401575);
#143=VECTOR('',#493,0.393700787401575);
#144=VECTOR('',#494,0.393700787401575);
#145=VECTOR('',#497,0.393700787401575);
#146=VECTOR('',#498,0.393700787401575);
#147=VECTOR('',#501,0.393700787401575);
#148=VECTOR('',#502,0.393700787401575);
#149=VECTOR('',#503,0.393700787401575);
#150=VECTOR('',#504,0.393700787401575);
#151=VECTOR('',#507,0.393700787401575);
#152=VECTOR('',#508,0.393700787401575);
#153=VECTOR('',#509,0.393700787401575);
#154=VECTOR('',#512,0.393700787401575);
#155=VECTOR('',#513,0.393700787401575);
#156=VECTOR('',#516,0.393700787401575);
#157=VECTOR('',#517,0.393700787401575);
#158=VECTOR('',#520,0.393700787401575);
#159=VECTOR('',#523,0.393700787401575);
#160=VECTOR('',#524,0.393700787401575);
#161=VECTOR('',#525,0.393700787401575);
#162=VECTOR('',#526,0.393700787401575);
#163=VECTOR('',#529,0.393700787401575);
#164=VECTOR('',#530,0.393700787401575);
#165=VECTOR('',#531,0.393700787401575);
#166=VECTOR('',#534,0.393700787401575);
#167=VECTOR('',#535,0.393700787401575);
#168=VECTOR('',#538,0.393700787401575);
#169=VECTOR('',#539,0.393700787401575);
#170=VECTOR('',#542,0.393700787401575);
#171=VERTEX_POINT('',#549);
#172=VERTEX_POINT('',#550);
#173=VERTEX_POINT('',#552);
#174=VERTEX_POINT('',#554);
#175=VERTEX_POINT('',#558);
#176=VERTEX_POINT('',#559);
#177=VERTEX_POINT('',#561);
#178=VERTEX_POINT('',#563);
#179=VERTEX_POINT('',#567);
#180=VERTEX_POINT('',#568);
#181=VERTEX_POINT('',#570);
#182=VERTEX_POINT('',#572);
#183=VERTEX_POINT('',#576);
#184=VERTEX_POINT('',#578);
#185=VERTEX_POINT('',#584);
#186=VERTEX_POINT('',#586);
#187=VERTEX_POINT('',#588);
#188=VERTEX_POINT('',#594);
#189=VERTEX_POINT('',#598);
#190=VERTEX_POINT('',#600);
#191=VERTEX_POINT('',#607);
#192=VERTEX_POINT('',#608);
#193=VERTEX_POINT('',#610);
#194=VERTEX_POINT('',#612);
#195=VERTEX_POINT('',#616);
#196=VERTEX_POINT('',#618);
#197=VERTEX_POINT('',#622);
#198=VERTEX_POINT('',#626);
#199=VERTEX_POINT('',#632);
#200=VERTEX_POINT('',#633);
#201=VERTEX_POINT('',#635);
#202=VERTEX_POINT('',#637);
#203=VERTEX_POINT('',#641);
#204=VERTEX_POINT('',#642);
#205=VERTEX_POINT('',#647);
#206=VERTEX_POINT('',#651);
#207=EDGE_CURVE('',#171,#172,#63,.T.);
#208=EDGE_CURVE('',#173,#171,#64,.T.);
#209=EDGE_CURVE('',#174,#173,#65,.T.);
#210=EDGE_CURVE('',#174,#172,#66,.T.);
#211=EDGE_CURVE('',#175,#176,#67,.T.);
#212=EDGE_CURVE('',#175,#177,#68,.T.);
#213=EDGE_CURVE('',#178,#177,#69,.T.);
#214=EDGE_CURVE('',#176,#178,#70,.T.);
#215=EDGE_CURVE('',#179,#180,#71,.T.);
#216=EDGE_CURVE('',#181,#179,#72,.T.);
#217=EDGE_CURVE('',#182,#181,#73,.T.);
#218=EDGE_CURVE('',#182,#180,#74,.T.);
#219=EDGE_CURVE('',#183,#179,#75,.T.);
#220=EDGE_CURVE('',#184,#183,#76,.T.);
#221=EDGE_CURVE('',#176,#184,#77,.T.);
#222=EDGE_CURVE('',#172,#178,#78,.T.);
#223=EDGE_CURVE('',#181,#174,#79,.T.);
#224=EDGE_CURVE('',#180,#185,#80,.T.);
#225=EDGE_CURVE('',#186,#185,#81,.T.);
#226=EDGE_CURVE('',#187,#186,#82,.T.);
#227=EDGE_CURVE('',#183,#187,#83,.T.);
#228=EDGE_CURVE('',#173,#182,#84,.T.);
#229=EDGE_CURVE('',#177,#171,#85,.T.);
#230=EDGE_CURVE('',#175,#188,#86,.T.);
#231=EDGE_CURVE('',#185,#188,#87,.T.);
#232=EDGE_CURVE('',#187,#189,#88,.T.);
#233=EDGE_CURVE('',#190,#186,#89,.T.);
#234=EDGE_CURVE('',#189,#190,#90,.T.);
#235=EDGE_CURVE('',#189,#184,#91,.T.);
#236=EDGE_CURVE('',#188,#190,#92,.T.);
#237=EDGE_CURVE('',#191,#192,#93,.T.);
#238=EDGE_CURVE('',#193,#191,#94,.T.);
#239=EDGE_CURVE('',#194,#193,#95,.T.);
#240=EDGE_CURVE('',#192,#194,#96,.T.);
#241=EDGE_CURVE('',#193,#195,#97,.T.);
#242=EDGE_CURVE('',#196,#195,#98,.T.);
#243=EDGE_CURVE('',#194,#196,#99,.T.);
#244=EDGE_CURVE('',#191,#197,#100,.T.);
#245=EDGE_CURVE('',#195,#197,#101,.T.);
#246=EDGE_CURVE('',#192,#198,#102,.T.);
#247=EDGE_CURVE('',#197,#198,#103,.T.);
#248=EDGE_CURVE('',#198,#196,#104,.T.);
#249=EDGE_CURVE('',#199,#200,#105,.T.);
#250=EDGE_CURVE('',#200,#201,#106,.T.);
#251=EDGE_CURVE('',#201,#202,#107,.T.);
#252=EDGE_CURVE('',#202,#199,#108,.T.);
#253=EDGE_CURVE('',#203,#204,#109,.T.);
#254=EDGE_CURVE('',#204,#199,#110,.T.);
#255=EDGE_CURVE('',#203,#202,#111,.T.);
#256=EDGE_CURVE('',#205,#203,#112,.T.);
#257=EDGE_CURVE('',#205,#201,#113,.T.);
#258=EDGE_CURVE('',#206,#205,#114,.T.);
#259=EDGE_CURVE('',#206,#200,#115,.T.);
#260=EDGE_CURVE('',#204,#206,#116,.T.);
#261=ORIENTED_EDGE('',*,*,#207,.F.);
#262=ORIENTED_EDGE('',*,*,#208,.F.);
#263=ORIENTED_EDGE('',*,*,#209,.F.);
#264=ORIENTED_EDGE('',*,*,#210,.T.);
#265=ORIENTED_EDGE('',*,*,#211,.F.);
#266=ORIENTED_EDGE('',*,*,#212,.T.);
#267=ORIENTED_EDGE('',*,*,#213,.F.);
#268=ORIENTED_EDGE('',*,*,#214,.F.);
#269=ORIENTED_EDGE('',*,*,#215,.F.);
#270=ORIENTED_EDGE('',*,*,#216,.F.);
#271=ORIENTED_EDGE('',*,*,#217,.F.);
#272=ORIENTED_EDGE('',*,*,#218,.T.);
#273=ORIENTED_EDGE('',*,*,#219,.F.);
#274=ORIENTED_EDGE('',*,*,#220,.F.);
#275=ORIENTED_EDGE('',*,*,#221,.F.);
#276=ORIENTED_EDGE('',*,*,#214,.T.);
#277=ORIENTED_EDGE('',*,*,#222,.F.);
#278=ORIENTED_EDGE('',*,*,#210,.F.);
#279=ORIENTED_EDGE('',*,*,#223,.F.);
#280=ORIENTED_EDGE('',*,*,#216,.T.);
#281=ORIENTED_EDGE('',*,*,#219,.T.);
#282=ORIENTED_EDGE('',*,*,#215,.T.);
#283=ORIENTED_EDGE('',*,*,#224,.T.);
#284=ORIENTED_EDGE('',*,*,#225,.F.);
#285=ORIENTED_EDGE('',*,*,#226,.F.);
#286=ORIENTED_EDGE('',*,*,#227,.F.);
#287=ORIENTED_EDGE('',*,*,#218,.F.);
#288=ORIENTED_EDGE('',*,*,#228,.F.);
#289=ORIENTED_EDGE('',*,*,#208,.T.);
#290=ORIENTED_EDGE('',*,*,#229,.F.);
#291=ORIENTED_EDGE('',*,*,#212,.F.);
#292=ORIENTED_EDGE('',*,*,#230,.T.);
#293=ORIENTED_EDGE('',*,*,#231,.F.);
#294=ORIENTED_EDGE('',*,*,#224,.F.);
#295=ORIENTED_EDGE('',*,*,#232,.F.);
#296=ORIENTED_EDGE('',*,*,#226,.T.);
#297=ORIENTED_EDGE('',*,*,#233,.F.);
#298=ORIENTED_EDGE('',*,*,#234,.F.);
#299=ORIENTED_EDGE('',*,*,#221,.T.);
#300=ORIENTED_EDGE('',*,*,#235,.F.);
#301=ORIENTED_EDGE('',*,*,#234,.T.);
#302=ORIENTED_EDGE('',*,*,#236,.F.);
#303=ORIENTED_EDGE('',*,*,#230,.F.);
#304=ORIENTED_EDGE('',*,*,#211,.T.);
#305=ORIENTED_EDGE('',*,*,#237,.F.);
#306=ORIENTED_EDGE('',*,*,#238,.F.);
#307=ORIENTED_EDGE('',*,*,#239,.F.);
#308=ORIENTED_EDGE('',*,*,#240,.F.);
#309=ORIENTED_EDGE('',*,*,#231,.T.);
#310=ORIENTED_EDGE('',*,*,#236,.T.);
#311=ORIENTED_EDGE('',*,*,#233,.T.);
#312=ORIENTED_EDGE('',*,*,#225,.T.);
#313=ORIENTED_EDGE('',*,*,#239,.T.);
#314=ORIENTED_EDGE('',*,*,#241,.T.);
#315=ORIENTED_EDGE('',*,*,#242,.F.);
#316=ORIENTED_EDGE('',*,*,#243,.F.);
#317=ORIENTED_EDGE('',*,*,#238,.T.);
#318=ORIENTED_EDGE('',*,*,#244,.T.);
#319=ORIENTED_EDGE('',*,*,#245,.F.);
#320=ORIENTED_EDGE('',*,*,#241,.F.);
#321=ORIENTED_EDGE('',*,*,#237,.T.);
#322=ORIENTED_EDGE('',*,*,#246,.T.);
#323=ORIENTED_EDGE('',*,*,#247,.F.);
#324=ORIENTED_EDGE('',*,*,#244,.F.);
#325=ORIENTED_EDGE('',*,*,#240,.T.);
#326=ORIENTED_EDGE('',*,*,#243,.T.);
#327=ORIENTED_EDGE('',*,*,#248,.F.);
#328=ORIENTED_EDGE('',*,*,#246,.F.);
#329=ORIENTED_EDGE('',*,*,#249,.T.);
#330=ORIENTED_EDGE('',*,*,#250,.T.);
#331=ORIENTED_EDGE('',*,*,#251,.T.);
#332=ORIENTED_EDGE('',*,*,#252,.T.);
#333=ORIENTED_EDGE('',*,*,#242,.T.);
#334=ORIENTED_EDGE('',*,*,#245,.T.);
#335=ORIENTED_EDGE('',*,*,#247,.T.);
#336=ORIENTED_EDGE('',*,*,#248,.T.);
#337=ORIENTED_EDGE('',*,*,#253,.T.);
#338=ORIENTED_EDGE('',*,*,#254,.T.);
#339=ORIENTED_EDGE('',*,*,#252,.F.);
#340=ORIENTED_EDGE('',*,*,#255,.F.);
#341=ORIENTED_EDGE('',*,*,#213,.T.);
#342=ORIENTED_EDGE('',*,*,#229,.T.);
#343=ORIENTED_EDGE('',*,*,#207,.T.);
#344=ORIENTED_EDGE('',*,*,#222,.T.);
#345=ORIENTED_EDGE('',*,*,#256,.T.);
#346=ORIENTED_EDGE('',*,*,#255,.T.);
#347=ORIENTED_EDGE('',*,*,#251,.F.);
#348=ORIENTED_EDGE('',*,*,#257,.F.);
#349=ORIENTED_EDGE('',*,*,#258,.T.);
#350=ORIENTED_EDGE('',*,*,#257,.T.);
#351=ORIENTED_EDGE('',*,*,#250,.F.);
#352=ORIENTED_EDGE('',*,*,#259,.F.);
#353=ORIENTED_EDGE('',*,*,#217,.T.);
#354=ORIENTED_EDGE('',*,*,#223,.T.);
#355=ORIENTED_EDGE('',*,*,#209,.T.);
#356=ORIENTED_EDGE('',*,*,#228,.T.);
#357=ORIENTED_EDGE('',*,*,#260,.T.);
#358=ORIENTED_EDGE('',*,*,#259,.T.);
#359=ORIENTED_EDGE('',*,*,#249,.F.);
#360=ORIENTED_EDGE('',*,*,#254,.F.);
#361=ORIENTED_EDGE('',*,*,#220,.T.);
#362=ORIENTED_EDGE('',*,*,#227,.T.);
#363=ORIENTED_EDGE('',*,*,#232,.T.);
#364=ORIENTED_EDGE('',*,*,#235,.T.);
#365=ORIENTED_EDGE('',*,*,#260,.F.);
#366=ORIENTED_EDGE('',*,*,#253,.F.);
#367=ORIENTED_EDGE('',*,*,#256,.F.);
#368=ORIENTED_EDGE('',*,*,#258,.F.);
#369=PLANE('',#431);
#370=PLANE('',#432);
#371=PLANE('',#433);
#372=PLANE('',#434);
#373=PLANE('',#435);
#374=PLANE('',#436);
#375=PLANE('',#437);
#376=PLANE('',#438);
#377=PLANE('',#439);
#378=PLANE('',#440);
#379=PLANE('',#441);
#380=PLANE('',#442);
#381=PLANE('',#443);
#382=PLANE('',#444);
#383=PLANE('',#445);
#384=PLANE('',#446);
#385=PLANE('',#447);
#386=PLANE('',#448);
#387=PLANE('',#449);
#388=PLANE('',#450);
#389=ADVANCED_FACE('',(#19),#369,.F.);
#390=ADVANCED_FACE('',(#20),#370,.F.);
#391=ADVANCED_FACE('',(#21),#371,.F.);
#392=ADVANCED_FACE('',(#22),#372,.F.);
#393=ADVANCED_FACE('',(#23),#373,.T.);
#394=ADVANCED_FACE('',(#24),#374,.T.);
#395=ADVANCED_FACE('',(#25),#375,.T.);
#396=ADVANCED_FACE('',(#26),#376,.T.);
#397=ADVANCED_FACE('',(#27,#15),#377,.T.);
#398=ADVANCED_FACE('',(#28),#378,.T.);
#399=ADVANCED_FACE('',(#29),#379,.T.);
#400=ADVANCED_FACE('',(#30),#380,.T.);
#401=ADVANCED_FACE('',(#31),#381,.T.);
#402=ADVANCED_FACE('',(#32,#16),#382,.T.);
#403=ADVANCED_FACE('',(#33,#17),#383,.T.);
#404=ADVANCED_FACE('',(#34),#384,.T.);
#405=ADVANCED_FACE('',(#35,#18),#385,.T.);
#406=ADVANCED_FACE('',(#36),#386,.T.);
#407=ADVANCED_FACE('',(#37),#387,.T.);
#408=ADVANCED_FACE('',(#38),#388,.F.);
#409=CLOSED_SHELL('',(#389,#390,#391,#392,#393,#394,#395,#396,#397,#398,
#399,#400,#401,#402,#403,#404,#405,#406,#407,#408));
#410=DERIVED_UNIT_ELEMENT(#412,1.);
#411=DERIVED_UNIT_ELEMENT(#666,-3.);
#412=(
CONVERSION_BASED_UNIT('gram',#414)
MASS_UNIT()
NAMED_UNIT(#663)
);
#413=(
MASS_UNIT()
NAMED_UNIT(*)
SI_UNIT(.KILO.,.GRAM.)
);
#414=MASS_MEASURE_WITH_UNIT(MASS_MEASURE(0.001),#413);
#415=DERIVED_UNIT((#410,#411));
#416=MEASURE_REPRESENTATION_ITEM('density measure',
POSITIVE_RATIO_MEASURE(1.),#415);
#417=PROPERTY_DEFINITION_REPRESENTATION(#422,#419);
#418=PROPERTY_DEFINITION_REPRESENTATION(#423,#420);
#419=REPRESENTATION('material name',(#421),#660);
#420=REPRESENTATION('density',(#416),#660);
#421=DESCRIPTIVE_REPRESENTATION_ITEM('Generic','Generic');
#422=PROPERTY_DEFINITION('material property','material name',#674);
#423=PROPERTY_DEFINITION('material property','density of part',#674);
#424=DATE_TIME_ROLE('creation_date');
#425=APPLIED_DATE_AND_TIME_ASSIGNMENT(#426,#424,(#674));
#426=DATE_AND_TIME(#427,#428);
#427=CALENDAR_DATE(2026,4,7);
#428=LOCAL_TIME(0,0,0.,#429);
#429=COORDINATED_UNIVERSAL_TIME_OFFSET(0,0,.BEHIND.);
#430=AXIS2_PLACEMENT_3D('',#547,#451,#452);
#431=AXIS2_PLACEMENT_3D('',#548,#453,#454);
#432=AXIS2_PLACEMENT_3D('',#557,#459,#460);
#433=AXIS2_PLACEMENT_3D('',#566,#465,#466);
#434=AXIS2_PLACEMENT_3D('',#575,#471,#472);
#435=AXIS2_PLACEMENT_3D('',#583,#478,#479);
#436=AXIS2_PLACEMENT_3D('',#591,#484,#485);
#437=AXIS2_PLACEMENT_3D('',#597,#490,#491);
#438=AXIS2_PLACEMENT_3D('',#603,#495,#496);
#439=AXIS2_PLACEMENT_3D('',#606,#499,#500);
#440=AXIS2_PLACEMENT_3D('',#615,#505,#506);
#441=AXIS2_PLACEMENT_3D('',#621,#510,#511);
#442=AXIS2_PLACEMENT_3D('',#625,#514,#515);
#443=AXIS2_PLACEMENT_3D('',#629,#518,#519);
#444=AXIS2_PLACEMENT_3D('',#631,#521,#522);
#445=AXIS2_PLACEMENT_3D('',#640,#527,#528);
#446=AXIS2_PLACEMENT_3D('',#646,#532,#533);
#447=AXIS2_PLACEMENT_3D('',#650,#536,#537);
#448=AXIS2_PLACEMENT_3D('',#654,#540,#541);
#449=AXIS2_PLACEMENT_3D('',#656,#543,#544);
#450=AXIS2_PLACEMENT_3D('',#657,#545,#546);
#451=DIRECTION('axis',(0.,0.,1.));
#452=DIRECTION('refdir',(1.,0.,0.));
#453=DIRECTION('center_axis',(0.,-1.,1.09273919746571E-16));
#454=DIRECTION('ref_axis',(0.,-1.09273919746571E-16,-1.));
#455=DIRECTION('',(1.74838271594513E-16,1.09273919746571E-16,1.));
#456=DIRECTION('',(1.,0.,0.));
#457=DIRECTION('',(0.,-1.09273919746571E-16,-1.));
#458=DIRECTION('',(1.,0.,0.));
#459=DIRECTION('center_axis',(0.,1.,0.));
#460=DIRECTION('ref_axis',(0.,0.,1.));
#461=DIRECTION('',(1.24884479710366E-16,0.,1.));
#462=DIRECTION('',(1.,0.,0.));
#463=DIRECTION('',(-1.74838271594513E-16,0.,-1.));
#464=DIRECTION('',(1.,0.,0.));
#465=DIRECTION('center_axis',(0.,1.,0.));
#466=DIRECTION('ref_axis',(0.,0.,1.));
#467=DIRECTION('',(9.9907583768293E-17,0.,-1.));
#468=DIRECTION('',(1.,0.,0.));
#469=DIRECTION('',(0.,0.,1.));
#470=DIRECTION('',(1.,0.,0.));
#471=DIRECTION('center_axis',(0.,0.,1.));
#472=DIRECTION('ref_axis',(0.,-1.,0.));
#473=DIRECTION('',(0.,1.,0.));
#474=DIRECTION('',(-1.,0.,0.));
#475=DIRECTION('',(0.,-1.,0.));
#476=DIRECTION('',(0.,1.,0.));
#477=DIRECTION('',(0.,-1.,0.));
#478=DIRECTION('center_axis',(1.,0.,9.9907583768293E-17));
#479=DIRECTION('ref_axis',(9.9907583768293E-17,0.,-1.));
#480=DIRECTION('',(0.,1.,0.));
#481=DIRECTION('',(9.9907583768293E-17,0.,-1.));
#482=DIRECTION('',(0.,1.,0.));
#483=DIRECTION('',(-9.9907583768293E-17,0.,1.));
#484=DIRECTION('center_axis',(-2.54310213228382E-16,0.,1.));
#485=DIRECTION('ref_axis',(1.,0.,2.54310213228382E-16));
#486=DIRECTION('',(0.,1.,-1.74838271594513E-16));
#487=DIRECTION('',(3.05684212141566E-32,-1.,1.74838271594513E-16));
#488=DIRECTION('',(0.,1.,0.));
#489=DIRECTION('',(1.,0.,2.54310213228382E-16));
#490=DIRECTION('center_axis',(0.,0.,-1.));
#491=DIRECTION('ref_axis',(-1.,0.,0.));
#492=DIRECTION('',(1.,0.,0.));
#493=DIRECTION('',(-1.,0.,0.));
#494=DIRECTION('',(0.,1.,0.));
#495=DIRECTION('center_axis',(-1.,0.,1.24884479710366E-16));
#496=DIRECTION('ref_axis',(1.24884479710366E-16,0.,1.));
#497=DIRECTION('',(-1.24884479710366E-16,0.,-1.));
#498=DIRECTION('',(1.24884479710366E-16,0.,1.));
#499=DIRECTION('center_axis',(0.,1.,0.));
#500=DIRECTION('ref_axis',(0.,0.,1.));
#501=DIRECTION('',(-1.,0.,2.3311769545935E-16));
#502=DIRECTION('',(4.31267736599798E-16,0.,1.));
#503=DIRECTION('',(1.,0.,-2.33117695459351E-16));
#504=DIRECTION('',(-3.72988312734961E-16,0.,-1.));
#505=DIRECTION('center_axis',(2.33117695459351E-16,0.,1.));
#506=DIRECTION('ref_axis',(1.,0.,-2.33117695459351E-16));
#507=DIRECTION('',(0.,1.,0.));
#508=DIRECTION('',(1.,0.,-2.33117695459351E-16));
#509=DIRECTION('',(0.,1.,0.));
#510=DIRECTION('center_axis',(-1.,0.,4.31267736599798E-16));
#511=DIRECTION('ref_axis',(4.31267736599798E-16,0.,1.));
#512=DIRECTION('',(0.,1.,0.));
#513=DIRECTION('',(4.31267736599798E-16,0.,1.));
#514=DIRECTION('center_axis',(-2.3311769545935E-16,0.,-1.));
#515=DIRECTION('ref_axis',(-1.,0.,2.3311769545935E-16));
#516=DIRECTION('',(0.,1.,0.));
#517=DIRECTION('',(-1.,0.,2.3311769545935E-16));
#518=DIRECTION('center_axis',(1.,0.,-3.72988312734961E-16));
#519=DIRECTION('ref_axis',(-3.72988312734961E-16,0.,-1.));
#520=DIRECTION('',(-3.72988312734961E-16,0.,-1.));
#521=DIRECTION('center_axis',(0.,1.,0.));
#522=DIRECTION('ref_axis',(0.,0.,1.));
#523=DIRECTION('',(-1.,0.,0.));
#524=DIRECTION('',(0.,0.,1.));
#525=DIRECTION('',(1.,0.,-2.38903968873716E-32));
#526=DIRECTION('',(-1.74838271594513E-16,0.,-1.));
#527=DIRECTION('center_axis',(1.,0.,-1.74838271594513E-16));
#528=DIRECTION('ref_axis',(-1.74838271594513E-16,0.,-1.));
#529=DIRECTION('',(-1.74838271594513E-16,0.,-1.));
#530=DIRECTION('',(0.,1.,0.));
#531=DIRECTION('',(0.,1.,0.));
#532=DIRECTION('center_axis',(2.38903968873716E-32,0.,1.));
#533=DIRECTION('ref_axis',(1.,0.,-2.38903968873716E-32));
#534=DIRECTION('',(1.,0.,-2.38903968873716E-32));
#535=DIRECTION('',(0.,1.,0.));
#536=DIRECTION('center_axis',(-1.,0.,0.));
#537=DIRECTION('ref_axis',(0.,0.,1.));
#538=DIRECTION('',(0.,0.,1.));
#539=DIRECTION('',(0.,1.,0.));
#540=DIRECTION('center_axis',(0.,0.,-1.));
#541=DIRECTION('ref_axis',(-1.,0.,0.));
#542=DIRECTION('',(-1.,0.,0.));
#543=DIRECTION('center_axis',(0.,1.,0.));
#544=DIRECTION('ref_axis',(0.,0.,1.));
#545=DIRECTION('center_axis',(0.,1.,0.));
#546=DIRECTION('ref_axis',(0.,0.,1.));
#547=CARTESIAN_POINT('',(0.,0.,0.));
#548=CARTESIAN_POINT('Origin',(-6.5,0.125,-6.5));
#549=CARTESIAN_POINT('',(-1.3987061727561E-15,0.125,-7.5));
#550=CARTESIAN_POINT('',(-1.3987061727561E-15,0.125,-6.5));
#551=CARTESIAN_POINT('',(-6.99353086378051E-16,0.125,-3.25));
#552=CARTESIAN_POINT('',(-6.5,0.125,-7.5));
#553=CARTESIAN_POINT('',(-6.5,0.125,-7.5));
#554=CARTESIAN_POINT('',(-6.5,0.125,-6.5));
#555=CARTESIAN_POINT('',(-6.5,0.125,-7.25));
#556=CARTESIAN_POINT('',(-6.5,0.125,-6.5));
#557=CARTESIAN_POINT('Origin',(-6.5,1.125,-7.5));
#558=CARTESIAN_POINT('',(-0.5,1.125,-7.5));
#559=CARTESIAN_POINT('',(-0.5,1.125,-6.5));
#560=CARTESIAN_POINT('',(-0.5,1.125,-7.5));
#561=CARTESIAN_POINT('',(-1.3987061727561E-15,1.125,-7.5));
#562=CARTESIAN_POINT('',(-6.5,1.125,-7.5));
#563=CARTESIAN_POINT('',(-1.3987061727561E-15,1.125,-6.5));
#564=CARTESIAN_POINT('',(-6.99353086378051E-16,1.125,-3.75));
#565=CARTESIAN_POINT('',(-6.5,1.125,-6.5));
#566=CARTESIAN_POINT('Origin',(-6.5,1.125,-7.5));
#567=CARTESIAN_POINT('',(-6.,1.125,-6.5));
#568=CARTESIAN_POINT('',(-6.,1.125,-7.5));
#569=CARTESIAN_POINT('',(-6.,1.125,-4.));
#570=CARTESIAN_POINT('',(-6.5,1.125,-6.5));
#571=CARTESIAN_POINT('',(-6.5,1.125,-6.5));
#572=CARTESIAN_POINT('',(-6.5,1.125,-7.5));
#573=CARTESIAN_POINT('',(-6.5,1.125,-7.75));
#574=CARTESIAN_POINT('',(-6.5,1.125,-7.5));
#575=CARTESIAN_POINT('Origin',(-6.5,1.125,-6.5));
#576=CARTESIAN_POINT('',(-6.,0.5,-6.5));
#577=CARTESIAN_POINT('',(-6.,0.5625,-6.5));
#578=CARTESIAN_POINT('',(-0.5,0.5,-6.5));
#579=CARTESIAN_POINT('',(-4.875,0.5,-6.5));
#580=CARTESIAN_POINT('',(-0.5,0.5625,-6.5));
#581=CARTESIAN_POINT('',(-1.3987061727561E-15,0.5625,-6.5));
#582=CARTESIAN_POINT('',(-6.5,0.5625,-6.5));
#583=CARTESIAN_POINT('Origin',(-6.,0.,-0.5));
#584=CARTESIAN_POINT('',(-6.,3.75,-7.5));
#585=CARTESIAN_POINT('',(-6.,0.,-7.5));
#586=CARTESIAN_POINT('',(-6.,3.75,-0.5));
#587=CARTESIAN_POINT('',(-6.,3.75,-0.5));
#588=CARTESIAN_POINT('',(-6.,0.5,-0.5));
#589=CARTESIAN_POINT('',(-6.,0.,-0.5));
#590=CARTESIAN_POINT('',(-6.,0.5,-2.25));
#591=CARTESIAN_POINT('Origin',(-6.,0.,-7.5));
#592=CARTESIAN_POINT('',(-6.5,0.0625,-7.5));
#593=CARTESIAN_POINT('',(-1.3987061727561E-15,0.0624999999999993,-7.5));
#594=CARTESIAN_POINT('',(-0.5,3.75,-7.5));
#595=CARTESIAN_POINT('',(-0.5,0.,-7.5));
#596=CARTESIAN_POINT('',(-6.,3.75,-7.5));
#597=CARTESIAN_POINT('Origin',(-0.499999999999999,0.,-0.5));
#598=CARTESIAN_POINT('',(-0.499999999999999,0.5,-0.5));
#599=CARTESIAN_POINT('',(-1.875,0.5,-0.5));
#600=CARTESIAN_POINT('',(-0.499999999999999,3.75,-0.5));
#601=CARTESIAN_POINT('',(-0.499999999999999,3.75,-0.5));
#602=CARTESIAN_POINT('',(-0.499999999999999,0.,-0.5));
#603=CARTESIAN_POINT('Origin',(-0.5,0.,-7.5));
#604=CARTESIAN_POINT('',(-0.5,0.5,-5.75));
#605=CARTESIAN_POINT('',(-0.5,3.75,-7.5));
#606=CARTESIAN_POINT('Origin',(-3.25,3.75,-4.));
#607=CARTESIAN_POINT('',(-0.249999999999999,3.75,-0.250000000000001));
#608=CARTESIAN_POINT('',(-6.25,3.75,-0.25));
#609=CARTESIAN_POINT('',(-1.75,3.75,-0.250000000000001));
#610=CARTESIAN_POINT('',(-0.250000000000002,3.75,-7.75));
#611=CARTESIAN_POINT('',(-0.250000000000001,3.75,-5.875));
#612=CARTESIAN_POINT('',(-6.25,3.75,-7.75));
#613=CARTESIAN_POINT('',(-4.75,3.75,-7.75));
#614=CARTESIAN_POINT('',(-6.25,3.75,-2.125));
#615=CARTESIAN_POINT('Origin',(-6.25,0.,-7.75));
#616=CARTESIAN_POINT('',(-0.250000000000002,4.,-7.75));
#617=CARTESIAN_POINT('',(-0.250000000000002,0.,-7.75));
#618=CARTESIAN_POINT('',(-6.25,4.,-7.75));
#619=CARTESIAN_POINT('',(-6.25,4.,-7.75));
#620=CARTESIAN_POINT('',(-6.25,0.,-7.75));
#621=CARTESIAN_POINT('Origin',(-0.250000000000002,0.,-7.75));
#622=CARTESIAN_POINT('',(-0.249999999999999,4.,-0.250000000000002));
#623=CARTESIAN_POINT('',(-0.249999999999999,0.,-0.250000000000001));
#624=CARTESIAN_POINT('',(-0.250000000000002,4.,-7.75));
#625=CARTESIAN_POINT('Origin',(-0.249999999999999,0.,-0.250000000000001));
#626=CARTESIAN_POINT('',(-6.25,4.,-0.249999999999999));
#627=CARTESIAN_POINT('',(-6.25,0.,-0.25));
#628=CARTESIAN_POINT('',(-0.249999999999999,4.,-0.250000000000001));
#629=CARTESIAN_POINT('Origin',(-6.25,0.,-0.25));
#630=CARTESIAN_POINT('',(-6.25,4.,-0.249999999999999));
#631=CARTESIAN_POINT('Origin',(-3.25,4.,-4.));
#632=CARTESIAN_POINT('',(-1.3987061727561E-15,4.,-8.));
#633=CARTESIAN_POINT('',(-6.5,4.,-8.));
#634=CARTESIAN_POINT('',(-1.3987061727561E-15,4.,-8.));
#635=CARTESIAN_POINT('',(-6.5,4.,0.));
#636=CARTESIAN_POINT('',(-6.5,4.,-8.));
#637=CARTESIAN_POINT('',(0.,4.,0.));
#638=CARTESIAN_POINT('',(-6.5,4.,1.55287579767916E-31));
#639=CARTESIAN_POINT('',(0.,4.,0.));
#640=CARTESIAN_POINT('Origin',(0.,0.,0.));
#641=CARTESIAN_POINT('',(0.,0.,0.));
#642=CARTESIAN_POINT('',(-1.3987061727561E-15,0.,-8.));
#643=CARTESIAN_POINT('',(0.,0.,0.));
#644=CARTESIAN_POINT('',(-1.3987061727561E-15,0.,-8.));
#645=CARTESIAN_POINT('',(0.,0.,0.));
#646=CARTESIAN_POINT('Origin',(-6.5,0.,1.55287579767916E-31));
#647=CARTESIAN_POINT('',(-6.5,0.,1.55287579767916E-31));
#648=CARTESIAN_POINT('',(-6.5,0.,1.55287579767916E-31));
#649=CARTESIAN_POINT('',(-6.5,0.,1.55287579767916E-31));
#650=CARTESIAN_POINT('Origin',(-6.5,0.,-8.));
#651=CARTESIAN_POINT('',(-6.5,0.,-8.));
#652=CARTESIAN_POINT('',(-6.5,0.,-8.));
#653=CARTESIAN_POINT('',(-6.5,0.,-8.));
#654=CARTESIAN_POINT('Origin',(-1.3987061727561E-15,0.,-8.));
#655=CARTESIAN_POINT('',(-1.3987061727561E-15,0.,-8.));
#656=CARTESIAN_POINT('Origin',(-3.25,0.5,-4.));
#657=CARTESIAN_POINT('Origin',(-3.25,0.,-4.));
#658=UNCERTAINTY_MEASURE_WITH_UNIT(LENGTH_MEASURE(0.000393700787401575),
#664,'DISTANCE_ACCURACY_VALUE',
'Maximum model space distance between geometric entities at asserted c
onnectivities');
#659=UNCERTAINTY_MEASURE_WITH_UNIT(LENGTH_MEASURE(0.000393700787401575),
#664,'DISTANCE_ACCURACY_VALUE',
'Maximum model space distance between geometric entities at asserted c
onnectivities');
#660=(
GEOMETRIC_REPRESENTATION_CONTEXT(3)
GLOBAL_UNCERTAINTY_ASSIGNED_CONTEXT((#658))
GLOBAL_UNIT_ASSIGNED_CONTEXT((#664,#668,#669))
REPRESENTATION_CONTEXT('','3D')
);
#661=(
GEOMETRIC_REPRESENTATION_CONTEXT(3)
GLOBAL_UNCERTAINTY_ASSIGNED_CONTEXT((#659))
GLOBAL_UNIT_ASSIGNED_CONTEXT((#664,#668,#669))
REPRESENTATION_CONTEXT('','3D')
);
#662=DIMENSIONAL_EXPONENTS(1.,0.,0.,0.,0.,0.,0.);
#663=DIMENSIONAL_EXPONENTS(0.,1.,0.,0.,0.,0.,0.);
#664=(
CONVERSION_BASED_UNIT('inch',#667)
LENGTH_UNIT()
NAMED_UNIT(#662)
);
#665=(
LENGTH_UNIT()
NAMED_UNIT(*)
SI_UNIT(.MILLI.,.METRE.)
);
#666=(
LENGTH_UNIT()
NAMED_UNIT(*)
SI_UNIT(.CENTI.,.METRE.)
);
#667=LENGTH_MEASURE_WITH_UNIT(LENGTH_MEASURE(25.4),#665);
#668=(
NAMED_UNIT(*)
PLANE_ANGLE_UNIT()
SI_UNIT($,.RADIAN.)
);
#669=(
NAMED_UNIT(*)
SI_UNIT($,.STERADIAN.)
SOLID_ANGLE_UNIT()
);
#670=SHAPE_DEFINITION_REPRESENTATION(#671,#672);
#671=PRODUCT_DEFINITION_SHAPE('',$,#674);
#672=SHAPE_REPRESENTATION('',(#430),#660);
#673=PRODUCT_DEFINITION_CONTEXT('part definition',#678,'design');
#674=PRODUCT_DEFINITION('OGRobotBase','OGRobotBase',#675,#673);
#675=PRODUCT_DEFINITION_FORMATION('',$,#680);
#676=PRODUCT_RELATED_PRODUCT_CATEGORY('OGRobotBase','OGRobotBase',(#680));
#677=APPLICATION_PROTOCOL_DEFINITION('international standard',
'automotive_design',2009,#678);
#678=APPLICATION_CONTEXT(
'Core Data for Automotive Mechanical Design Process');
#679=PRODUCT_CONTEXT('part definition',#678,'mechanical');
#680=PRODUCT('OGRobotBase','OGRobotBase',$,(#679));
#681=PRESENTATION_STYLE_ASSIGNMENT((#682));
#682=SURFACE_STYLE_USAGE(.BOTH.,#685);
#683=SURFACE_STYLE_RENDERING_WITH_PROPERTIES($,#689,(#684));
#684=SURFACE_STYLE_TRANSPARENT(0.);
#685=SURFACE_SIDE_STYLE('',(#686,#683));
#686=SURFACE_STYLE_FILL_AREA(#687);
#687=FILL_AREA_STYLE('',(#688));
#688=FILL_AREA_STYLE_COLOUR('',#689);
#689=COLOUR_RGB('',0.749019607843137,0.749019607843137,0.749019607843137);
ENDSEC;
END-ISO-10303-21;
