ISO-10303-21;
HEADER;
/* Generated by software containing ST-Developer
 * from STEP Tools, Inc. (www.steptools.com) 
 */

FILE_DESCRIPTION(
/* description */ (''),
/* implementation_level */ '2;1');

FILE_NAME(
/* name */ 'OGRobotRoof.stp',
/* time_stamp */ '2026-07-08T19:01:27-05:00',
/* author */ ('machnach0'),
/* organization */ (''),
/* preprocessor_version */ 'ST-DEVELOPER v20.1',
/* originating_system */ 'Autodesk Inventor 2027',
/* authorisation */ '');

FILE_SCHEMA (('AUTOMOTIVE_DESIGN { 1 0 10303 214 3 1 1 }'));
ENDSEC;

DATA;
#10=MECHANICAL_DESIGN_GEOMETRIC_PRESENTATION_REPRESENTATION('',(#13),#372);
#11=SHAPE_REPRESENTATION_RELATIONSHIP('SRR','None',#383,#12);
#12=ADVANCED_BREP_SHAPE_REPRESENTATION('',(#14),#371);
#13=STYLED_ITEM('',(#392),#14);
#14=MANIFOLD_SOLID_BREP('Solid1',#220);
#15=FACE_BOUND('',#39,.T.);
#16=FACE_BOUND('',#41,.T.);
#17=FACE_BOUND('',#47,.T.);
#18=CIRCLE('',#245,1.25);
#19=CIRCLE('',#246,1.25);
#20=CYLINDRICAL_SURFACE('',#244,1.25);
#21=FACE_OUTER_BOUND('',#33,.T.);
#22=FACE_OUTER_BOUND('',#34,.T.);
#23=FACE_OUTER_BOUND('',#35,.T.);
#24=FACE_OUTER_BOUND('',#36,.T.);
#25=FACE_OUTER_BOUND('',#37,.T.);
#26=FACE_OUTER_BOUND('',#38,.T.);
#27=FACE_OUTER_BOUND('',#40,.T.);
#28=FACE_OUTER_BOUND('',#42,.T.);
#29=FACE_OUTER_BOUND('',#43,.T.);
#30=FACE_OUTER_BOUND('',#44,.T.);
#31=FACE_OUTER_BOUND('',#45,.T.);
#32=FACE_OUTER_BOUND('',#46,.T.);
#33=EDGE_LOOP('',(#143,#144,#145,#146));
#34=EDGE_LOOP('',(#147,#148,#149,#150));
#35=EDGE_LOOP('',(#151,#152,#153,#154));
#36=EDGE_LOOP('',(#155,#156,#157,#158));
#37=EDGE_LOOP('',(#159,#160,#161,#162));
#38=EDGE_LOOP('',(#163,#164,#165,#166));
#39=EDGE_LOOP('',(#167));
#40=EDGE_LOOP('',(#168,#169,#170,#171));
#41=EDGE_LOOP('',(#172,#173,#174,#175));
#42=EDGE_LOOP('',(#176,#177,#178,#179));
#43=EDGE_LOOP('',(#180,#181,#182,#183));
#44=EDGE_LOOP('',(#184,#185,#186,#187));
#45=EDGE_LOOP('',(#188,#189,#190,#191));
#46=EDGE_LOOP('',(#192,#193,#194,#195));
#47=EDGE_LOOP('',(#196));
#48=LINE('',#315,#73);
#49=LINE('',#317,#74);
#50=LINE('',#319,#75);
#51=LINE('',#320,#76);
#52=LINE('',#323,#77);
#53=LINE('',#325,#78);
#54=LINE('',#326,#79);
#55=LINE('',#331,#80);
#56=LINE('',#335,#81);
#57=LINE('',#337,#82);
#58=LINE('',#338,#83);
#59=LINE('',#340,#84);
#60=LINE('',#341,#85);
#61=LINE('',#346,#86);
#62=LINE('',#348,#87);
#63=LINE('',#350,#88);
#64=LINE('',#351,#89);
#65=LINE('',#355,#90);
#66=LINE('',#356,#91);
#67=LINE('',#357,#92);
#68=LINE('',#360,#93);
#69=LINE('',#361,#94);
#70=LINE('',#364,#95);
#71=LINE('',#365,#96);
#72=LINE('',#367,#97);
#73=VECTOR('',#260,0.393700787401575);
#74=VECTOR('',#261,0.393700787401575);
#75=VECTOR('',#262,0.393700787401575);
#76=VECTOR('',#263,0.393700787401575);
#77=VECTOR('',#266,0.393700787401575);
#78=VECTOR('',#267,0.393700787401575);
#79=VECTOR('',#268,0.393700787401575);
#80=VECTOR('',#273,1.25);
#81=VECTOR('',#278,0.393700787401575);
#82=VECTOR('',#279,0.393700787401575);
#83=VECTOR('',#280,0.393700787401575);
#84=VECTOR('',#283,0.393700787401575);
#85=VECTOR('',#284,0.393700787401575);
#86=VECTOR('',#289,0.393700787401575);
#87=VECTOR('',#290,0.393700787401575);
#88=VECTOR('',#291,0.393700787401575);
#89=VECTOR('',#292,0.393700787401575);
#90=VECTOR('',#295,0.393700787401575);
#91=VECTOR('',#296,0.393700787401575);
#92=VECTOR('',#297,0.393700787401575);
#93=VECTOR('',#300,0.393700787401575);
#94=VECTOR('',#301,0.393700787401575);
#95=VECTOR('',#304,0.393700787401575);
#96=VECTOR('',#305,0.393700787401575);
#97=VECTOR('',#308,0.393700787401575);
#98=VERTEX_POINT('',#313);
#99=VERTEX_POINT('',#314);
#100=VERTEX_POINT('',#316);
#101=VERTEX_POINT('',#318);
#102=VERTEX_POINT('',#322);
#103=VERTEX_POINT('',#324);
#104=VERTEX_POINT('',#328);
#105=VERTEX_POINT('',#330);
#106=VERTEX_POINT('',#334);
#107=VERTEX_POINT('',#336);
#108=VERTEX_POINT('',#344);
#109=VERTEX_POINT('',#345);
#110=VERTEX_POINT('',#347);
#111=VERTEX_POINT('',#349);
#112=VERTEX_POINT('',#353);
#113=VERTEX_POINT('',#354);
#114=VERTEX_POINT('',#359);
#115=VERTEX_POINT('',#363);
#116=EDGE_CURVE('',#98,#99,#48,.T.);
#117=EDGE_CURVE('',#98,#100,#49,.T.);
#118=EDGE_CURVE('',#101,#100,#50,.T.);
#119=EDGE_CURVE('',#99,#101,#51,.T.);
#120=EDGE_CURVE('',#102,#98,#52,.T.);
#121=EDGE_CURVE('',#102,#103,#53,.T.);
#122=EDGE_CURVE('',#100,#103,#54,.T.);
#123=EDGE_CURVE('',#104,#104,#18,.T.);
#124=EDGE_CURVE('',#104,#105,#55,.T.);
#125=EDGE_CURVE('',#105,#105,#19,.T.);
#126=EDGE_CURVE('',#99,#106,#56,.T.);
#127=EDGE_CURVE('',#107,#101,#57,.T.);
#128=EDGE_CURVE('',#106,#107,#58,.T.);
#129=EDGE_CURVE('',#106,#102,#59,.T.);
#130=EDGE_CURVE('',#103,#107,#60,.T.);
#131=EDGE_CURVE('',#108,#109,#61,.T.);
#132=EDGE_CURVE('',#109,#110,#62,.T.);
#133=EDGE_CURVE('',#110,#111,#63,.T.);
#134=EDGE_CURVE('',#111,#108,#64,.T.);
#135=EDGE_CURVE('',#112,#113,#65,.T.);
#136=EDGE_CURVE('',#113,#108,#66,.T.);
#137=EDGE_CURVE('',#112,#111,#67,.T.);
#138=EDGE_CURVE('',#114,#112,#68,.T.);
#139=EDGE_CURVE('',#114,#110,#69,.T.);
#140=EDGE_CURVE('',#115,#114,#70,.T.);
#141=EDGE_CURVE('',#115,#109,#71,.T.);
#142=EDGE_CURVE('',#113,#115,#72,.T.);
#143=ORIENTED_EDGE('',*,*,#116,.F.);
#144=ORIENTED_EDGE('',*,*,#117,.T.);
#145=ORIENTED_EDGE('',*,*,#118,.F.);
#146=ORIENTED_EDGE('',*,*,#119,.F.);
#147=ORIENTED_EDGE('',*,*,#120,.F.);
#148=ORIENTED_EDGE('',*,*,#121,.T.);
#149=ORIENTED_EDGE('',*,*,#122,.F.);
#150=ORIENTED_EDGE('',*,*,#117,.F.);
#151=ORIENTED_EDGE('',*,*,#123,.F.);
#152=ORIENTED_EDGE('',*,*,#124,.T.);
#153=ORIENTED_EDGE('',*,*,#125,.F.);
#154=ORIENTED_EDGE('',*,*,#124,.F.);
#155=ORIENTED_EDGE('',*,*,#126,.F.);
#156=ORIENTED_EDGE('',*,*,#119,.T.);
#157=ORIENTED_EDGE('',*,*,#127,.F.);
#158=ORIENTED_EDGE('',*,*,#128,.F.);
#159=ORIENTED_EDGE('',*,*,#129,.F.);
#160=ORIENTED_EDGE('',*,*,#128,.T.);
#161=ORIENTED_EDGE('',*,*,#130,.F.);
#162=ORIENTED_EDGE('',*,*,#121,.F.);
#163=ORIENTED_EDGE('',*,*,#130,.T.);
#164=ORIENTED_EDGE('',*,*,#127,.T.);
#165=ORIENTED_EDGE('',*,*,#118,.T.);
#166=ORIENTED_EDGE('',*,*,#122,.T.);
#167=ORIENTED_EDGE('',*,*,#123,.T.);
#168=ORIENTED_EDGE('',*,*,#131,.T.);
#169=ORIENTED_EDGE('',*,*,#132,.T.);
#170=ORIENTED_EDGE('',*,*,#133,.T.);
#171=ORIENTED_EDGE('',*,*,#134,.T.);
#172=ORIENTED_EDGE('',*,*,#120,.T.);
#173=ORIENTED_EDGE('',*,*,#116,.T.);
#174=ORIENTED_EDGE('',*,*,#126,.T.);
#175=ORIENTED_EDGE('',*,*,#129,.T.);
#176=ORIENTED_EDGE('',*,*,#135,.T.);
#177=ORIENTED_EDGE('',*,*,#136,.T.);
#178=ORIENTED_EDGE('',*,*,#134,.F.);
#179=ORIENTED_EDGE('',*,*,#137,.F.);
#180=ORIENTED_EDGE('',*,*,#138,.T.);
#181=ORIENTED_EDGE('',*,*,#137,.T.);
#182=ORIENTED_EDGE('',*,*,#133,.F.);
#183=ORIENTED_EDGE('',*,*,#139,.F.);
#184=ORIENTED_EDGE('',*,*,#140,.T.);
#185=ORIENTED_EDGE('',*,*,#139,.T.);
#186=ORIENTED_EDGE('',*,*,#132,.F.);
#187=ORIENTED_EDGE('',*,*,#141,.F.);
#188=ORIENTED_EDGE('',*,*,#142,.T.);
#189=ORIENTED_EDGE('',*,*,#141,.T.);
#190=ORIENTED_EDGE('',*,*,#131,.F.);
#191=ORIENTED_EDGE('',*,*,#136,.F.);
#192=ORIENTED_EDGE('',*,*,#142,.F.);
#193=ORIENTED_EDGE('',*,*,#135,.F.);
#194=ORIENTED_EDGE('',*,*,#138,.F.);
#195=ORIENTED_EDGE('',*,*,#140,.F.);
#196=ORIENTED_EDGE('',*,*,#125,.T.);
#197=PLANE('',#242);
#198=PLANE('',#243);
#199=PLANE('',#247);
#200=PLANE('',#248);
#201=PLANE('',#249);
#202=PLANE('',#250);
#203=PLANE('',#251);
#204=PLANE('',#252);
#205=PLANE('',#253);
#206=PLANE('',#254);
#207=PLANE('',#255);
#208=ADVANCED_FACE('',(#21),#197,.T.);
#209=ADVANCED_FACE('',(#22),#198,.T.);
#210=ADVANCED_FACE('',(#23),#20,.F.);
#211=ADVANCED_FACE('',(#24),#199,.T.);
#212=ADVANCED_FACE('',(#25),#200,.T.);
#213=ADVANCED_FACE('',(#26,#15),#201,.T.);
#214=ADVANCED_FACE('',(#27,#16),#202,.T.);
#215=ADVANCED_FACE('',(#28),#203,.T.);
#216=ADVANCED_FACE('',(#29),#204,.T.);
#217=ADVANCED_FACE('',(#30),#205,.T.);
#218=ADVANCED_FACE('',(#31),#206,.T.);
#219=ADVANCED_FACE('',(#32,#17),#207,.F.);
#220=CLOSED_SHELL('',(#208,#209,#210,#211,#212,#213,#214,#215,#216,#217,
#218,#219));
#221=DERIVED_UNIT_ELEMENT(#223,1.);
#222=DERIVED_UNIT_ELEMENT(#377,-3.);
#223=(
CONVERSION_BASED_UNIT('gram',#225)
MASS_UNIT()
NAMED_UNIT(#374)
);
#224=(
MASS_UNIT()
NAMED_UNIT(*)
SI_UNIT(.KILO.,.GRAM.)
);
#225=MASS_MEASURE_WITH_UNIT(MASS_MEASURE(0.001),#224);
#226=DERIVED_UNIT((#221,#222));
#227=MEASURE_REPRESENTATION_ITEM('density measure',
POSITIVE_RATIO_MEASURE(1.),#226);
#228=PROPERTY_DEFINITION_REPRESENTATION(#233,#230);
#229=PROPERTY_DEFINITION_REPRESENTATION(#234,#231);
#230=REPRESENTATION('material name',(#232),#371);
#231=REPRESENTATION('density',(#227),#371);
#232=DESCRIPTIVE_REPRESENTATION_ITEM('Generic','Generic');
#233=PROPERTY_DEFINITION('material property','material name',#385);
#234=PROPERTY_DEFINITION('material property','density of part',#385);
#235=DATE_TIME_ROLE('creation_date');
#236=APPLIED_DATE_AND_TIME_ASSIGNMENT(#237,#235,(#385));
#237=DATE_AND_TIME(#238,#239);
#238=CALENDAR_DATE(2026,4,7);
#239=LOCAL_TIME(0,0,0.,#240);
#240=COORDINATED_UNIVERSAL_TIME_OFFSET(0,0,.BEHIND.);
#241=AXIS2_PLACEMENT_3D('',#311,#256,#257);
#242=AXIS2_PLACEMENT_3D('',#312,#258,#259);
#243=AXIS2_PLACEMENT_3D('',#321,#264,#265);
#244=AXIS2_PLACEMENT_3D('',#327,#269,#270);
#245=AXIS2_PLACEMENT_3D('',#329,#271,#272);
#246=AXIS2_PLACEMENT_3D('',#332,#274,#275);
#247=AXIS2_PLACEMENT_3D('',#333,#276,#277);
#248=AXIS2_PLACEMENT_3D('',#339,#281,#282);
#249=AXIS2_PLACEMENT_3D('',#342,#285,#286);
#250=AXIS2_PLACEMENT_3D('',#343,#287,#288);
#251=AXIS2_PLACEMENT_3D('',#352,#293,#294);
#252=AXIS2_PLACEMENT_3D('',#358,#298,#299);
#253=AXIS2_PLACEMENT_3D('',#362,#302,#303);
#254=AXIS2_PLACEMENT_3D('',#366,#306,#307);
#255=AXIS2_PLACEMENT_3D('',#368,#309,#310);
#256=DIRECTION('axis',(0.,0.,1.));
#257=DIRECTION('refdir',(1.,0.,0.));
#258=DIRECTION('center_axis',(4.74137685680035E-16,0.,-1.));
#259=DIRECTION('ref_axis',(-1.,0.,-4.74137685680035E-16));
#260=DIRECTION('',(1.,0.,4.74137685680035E-16));
#261=DIRECTION('',(0.,1.,0.));
#262=DIRECTION('',(-1.,0.,-4.74137685680035E-16));
#263=DIRECTION('',(0.,1.,0.));
#264=DIRECTION('center_axis',(-1.,0.,-5.67043043009231E-16));
#265=DIRECTION('ref_axis',(-5.67043043009231E-16,0.,1.));
#266=DIRECTION('',(5.67043043009231E-16,0.,-1.));
#267=DIRECTION('',(0.,1.,0.));
#268=DIRECTION('',(-5.67043043009231E-16,0.,1.));
#269=DIRECTION('center_axis',(0.,1.,0.));
#270=DIRECTION('ref_axis',(1.,0.,0.));
#271=DIRECTION('center_axis',(0.,-1.,0.));
#272=DIRECTION('ref_axis',(1.,0.,0.));
#273=DIRECTION('',(0.,-1.,0.));
#274=DIRECTION('center_axis',(0.,1.,0.));
#275=DIRECTION('ref_axis',(-1.,0.,0.));
#276=DIRECTION('center_axis',(1.,0.,-1.24040665658269E-16));
#277=DIRECTION('ref_axis',(-1.24040665658269E-16,0.,-1.));
#278=DIRECTION('',(1.24040665658269E-16,0.,1.));
#279=DIRECTION('',(-1.24040665658269E-16,0.,-1.));
#280=DIRECTION('',(0.,1.,0.));
#281=DIRECTION('center_axis',(2.37068842840017E-16,0.,1.));
#282=DIRECTION('ref_axis',(1.,0.,-2.37068842840017E-16));
#283=DIRECTION('',(-1.,0.,2.37068842840017E-16));
#284=DIRECTION('',(1.,0.,-2.37068842840017E-16));
#285=DIRECTION('center_axis',(0.,1.,0.));
#286=DIRECTION('ref_axis',(0.,0.,1.));
#287=DIRECTION('center_axis',(0.,1.,0.));
#288=DIRECTION('ref_axis',(0.,0.,1.));
#289=DIRECTION('',(-1.,0.,-6.45556695118201E-16));
#290=DIRECTION('',(-1.74838271594513E-16,0.,1.));
#291=DIRECTION('',(1.,0.,0.));
#292=DIRECTION('',(0.,0.,-1.));
#293=DIRECTION('center_axis',(1.,0.,0.));
#294=DIRECTION('ref_axis',(0.,0.,-1.));
#295=DIRECTION('',(0.,0.,-1.));
#296=DIRECTION('',(0.,1.,0.));
#297=DIRECTION('',(0.,1.,0.));
#298=DIRECTION('center_axis',(0.,0.,1.));
#299=DIRECTION('ref_axis',(1.,0.,0.));
#300=DIRECTION('',(1.,0.,0.));
#301=DIRECTION('',(0.,1.,0.));
#302=DIRECTION('center_axis',(-1.,0.,-1.74838271594513E-16));
#303=DIRECTION('ref_axis',(-1.74838271594513E-16,0.,1.));
#304=DIRECTION('',(-1.74838271594513E-16,0.,1.));
#305=DIRECTION('',(0.,1.,0.));
#306=DIRECTION('center_axis',(6.45556695118201E-16,0.,-1.));
#307=DIRECTION('ref_axis',(-1.,0.,-6.45556695118201E-16));
#308=DIRECTION('',(-1.,0.,-6.45556695118201E-16));
#309=DIRECTION('center_axis',(0.,1.,0.));
#310=DIRECTION('ref_axis',(0.,0.,1.));
#311=CARTESIAN_POINT('',(0.,0.,0.));
#312=CARTESIAN_POINT('Origin',(-0.3,0.,-7.7));
#313=CARTESIAN_POINT('',(-6.2,0.25,-7.7));
#314=CARTESIAN_POINT('',(-0.3,0.25,-7.7));
#315=CARTESIAN_POINT('',(-1.775,0.25,-7.7));
#316=CARTESIAN_POINT('',(-6.2,0.45,-7.7));
#317=CARTESIAN_POINT('',(-6.2,0.,-7.7));
#318=CARTESIAN_POINT('',(-0.3,0.45,-7.7));
#319=CARTESIAN_POINT('',(-0.3,0.45,-7.7));
#320=CARTESIAN_POINT('',(-0.3,0.,-7.7));
#321=CARTESIAN_POINT('Origin',(-6.2,0.,-7.7));
#322=CARTESIAN_POINT('',(-6.2,0.25,-0.299999999999999));
#323=CARTESIAN_POINT('',(-6.2,0.25,-5.85));
#324=CARTESIAN_POINT('',(-6.2,0.45,-0.299999999999999));
#325=CARTESIAN_POINT('',(-6.2,0.,-0.299999999999999));
#326=CARTESIAN_POINT('',(-6.2,0.45,-7.7));
#327=CARTESIAN_POINT('Origin',(-3.25,0.,-4.5));
#328=CARTESIAN_POINT('',(-4.5,0.45,-4.5));
#329=CARTESIAN_POINT('Origin',(-3.25,0.45,-4.5));
#330=CARTESIAN_POINT('',(-4.5,0.,-4.5));
#331=CARTESIAN_POINT('',(-4.5,0.,-4.5));
#332=CARTESIAN_POINT('Origin',(-3.25,0.,-4.5));
#333=CARTESIAN_POINT('Origin',(-0.3,0.,-0.300000000000001));
#334=CARTESIAN_POINT('',(-0.3,0.25,-0.300000000000001));
#335=CARTESIAN_POINT('',(-0.3,0.25,-2.15));
#336=CARTESIAN_POINT('',(-0.299999999999999,0.45,-0.300000000000001));
#337=CARTESIAN_POINT('',(-0.3,0.45,-0.300000000000001));
#338=CARTESIAN_POINT('',(-0.3,0.,-0.300000000000001));
#339=CARTESIAN_POINT('Origin',(-6.2,0.,-0.299999999999999));
#340=CARTESIAN_POINT('',(-4.725,0.25,-0.3));
#341=CARTESIAN_POINT('',(-6.2,0.45,-0.299999999999999));
#342=CARTESIAN_POINT('Origin',(-3.25,0.45,-4.));
#343=CARTESIAN_POINT('Origin',(-3.25,0.25,-4.));
#344=CARTESIAN_POINT('',(0.,0.25,-8.));
#345=CARTESIAN_POINT('',(-6.5,0.25,-8.));
#346=CARTESIAN_POINT('',(0.,0.25,-8.));
#347=CARTESIAN_POINT('',(-6.5,0.25,0.));
#348=CARTESIAN_POINT('',(-6.5,0.25,-8.));
#349=CARTESIAN_POINT('',(0.,0.25,0.));
#350=CARTESIAN_POINT('',(-6.5,0.25,0.));
#351=CARTESIAN_POINT('',(0.,0.25,0.));
#352=CARTESIAN_POINT('Origin',(0.,0.,0.));
#353=CARTESIAN_POINT('',(0.,0.,0.));
#354=CARTESIAN_POINT('',(0.,0.,-8.));
#355=CARTESIAN_POINT('',(0.,0.,0.));
#356=CARTESIAN_POINT('',(0.,0.,-8.));
#357=CARTESIAN_POINT('',(0.,0.,0.));
#358=CARTESIAN_POINT('Origin',(-6.5,0.,0.));
#359=CARTESIAN_POINT('',(-6.5,0.,0.));
#360=CARTESIAN_POINT('',(-6.5,0.,0.));
#361=CARTESIAN_POINT('',(-6.5,0.,0.));
#362=CARTESIAN_POINT('Origin',(-6.5,0.,-8.));
#363=CARTESIAN_POINT('',(-6.5,0.,-8.));
#364=CARTESIAN_POINT('',(-6.5,0.,-8.));
#365=CARTESIAN_POINT('',(-6.5,0.,-8.));
#366=CARTESIAN_POINT('Origin',(0.,0.,-8.));
#367=CARTESIAN_POINT('',(0.,0.,-8.));
#368=CARTESIAN_POINT('Origin',(-3.25,0.,-4.));
#369=UNCERTAINTY_MEASURE_WITH_UNIT(LENGTH_MEASURE(0.000393700787401575),
#375,'DISTANCE_ACCURACY_VALUE',
'Maximum model space distance between geometric entities at asserted c
onnectivities');
#370=UNCERTAINTY_MEASURE_WITH_UNIT(LENGTH_MEASURE(0.000393700787401575),
#375,'DISTANCE_ACCURACY_VALUE',
'Maximum model space distance between geometric entities at asserted c
onnectivities');
#371=(
GEOMETRIC_REPRESENTATION_CONTEXT(3)
GLOBAL_UNCERTAINTY_ASSIGNED_CONTEXT((#369))
GLOBAL_UNIT_ASSIGNED_CONTEXT((#375,#379,#380))
REPRESENTATION_CONTEXT('','3D')
);
#372=(
GEOMETRIC_REPRESENTATION_CONTEXT(3)
GLOBAL_UNCERTAINTY_ASSIGNED_CONTEXT((#370))
GLOBAL_UNIT_ASSIGNED_CONTEXT((#375,#379,#380))
REPRESENTATION_CONTEXT('','3D')
);
#373=DIMENSIONAL_EXPONENTS(1.,0.,0.,0.,0.,0.,0.);
#374=DIMENSIONAL_EXPONENTS(0.,1.,0.,0.,0.,0.,0.);
#375=(
CONVERSION_BASED_UNIT('inch',#378)
LENGTH_UNIT()
NAMED_UNIT(#373)
);
#376=(
LENGTH_UNIT()
NAMED_UNIT(*)
SI_UNIT(.MILLI.,.METRE.)
);
#377=(
LENGTH_UNIT()
NAMED_UNIT(*)
SI_UNIT(.CENTI.,.METRE.)
);
#378=LENGTH_MEASURE_WITH_UNIT(LENGTH_MEASURE(25.4),#376);
#379=(
NAMED_UNIT(*)
PLANE_ANGLE_UNIT()
SI_UNIT($,.RADIAN.)
);
#380=(
NAMED_UNIT(*)
SI_UNIT($,.STERADIAN.)
SOLID_ANGLE_UNIT()
);
#381=SHAPE_DEFINITION_REPRESENTATION(#382,#383);
#382=PRODUCT_DEFINITION_SHAPE('',$,#385);
#383=SHAPE_REPRESENTATION('',(#241),#371);
#384=PRODUCT_DEFINITION_CONTEXT('part definition',#389,'design');
#385=PRODUCT_DEFINITION('OGRobotRoof','OGRobotRoof',#386,#384);
#386=PRODUCT_DEFINITION_FORMATION('',$,#391);
#387=PRODUCT_RELATED_PRODUCT_CATEGORY('OGRobotRoof','OGRobotRoof',(#391));
#388=APPLICATION_PROTOCOL_DEFINITION('international standard',
'automotive_design',2009,#389);
#389=APPLICATION_CONTEXT(
'Core Data for Automotive Mechanical Design Process');
#390=PRODUCT_CONTEXT('part definition',#389,'mechanical');
#391=PRODUCT('OGRobotRoof','OGRobotRoof',$,(#390));
#392=PRESENTATION_STYLE_ASSIGNMENT((#393));
#393=SURFACE_STYLE_USAGE(.BOTH.,#396);
#394=SURFACE_STYLE_RENDERING_WITH_PROPERTIES($,#400,(#395));
#395=SURFACE_STYLE_TRANSPARENT(0.);
#396=SURFACE_SIDE_STYLE('',(#397,#394));
#397=SURFACE_STYLE_FILL_AREA(#398);
#398=FILL_AREA_STYLE('',(#399));
#399=FILL_AREA_STYLE_COLOUR('',#400);
#400=COLOUR_RGB('',0.749019607843137,0.749019607843137,0.749019607843137);
ENDSEC;
END-ISO-10303-21;
